<?xml version="1.0" encoding="utf-8"?>
<!-- Generator: Adobe Illustrator 25.4.1, SVG Export Plug-In . SVG Version: 6.00 Build 0)  -->
<svg version="1.1" id="Layer_1" xmlns="http://www.w3.org/2000/svg" xmlns:xlink="http://www.w3.org/1999/xlink" x="0px" y="0px"
	 viewBox="0 0 200 200" style="enable-background:new 0 0 200 200;" xml:space="preserve">
<g id="Group_161" transform="translate(-627.748 -195.473)">
	<g id="Group_149" transform="translate(631.61 199.336)">
		<path id="Path_462" d="M106.4,157.4H85.9L81.6,146c-3.6-1.1-7.1-2.5-10.5-4.3l-7.1,3.2c-0.9,0.4-2,0.1-2.4-0.8
			c-0.4-0.9-0.1-2,0.8-2.4c0,0,0.1,0,0.1-0.1l8.7-4l0.8,0.5c3.6,2,7.4,3.6,11.3,4.7l0.9,0.2l4,10.8h15.5l4-10.8l0.9-0.2
			c4-1.1,7.8-2.6,11.3-4.7l0.8-0.5l8.7,4c0.9,0.4,1.3,1.5,0.9,2.4c-0.4,0.9-1.5,1.3-2.4,0.9l-7.1-3.2c-3.3,1.8-6.8,3.3-10.5,4.3
			L106.4,157.4z M96.2,133.4c-20.6,0-37.2-16.7-37.2-37.2c0-7.4,2.2-14.7,6.4-20.8c0.6-0.8,1.7-1,2.5-0.5c0.8,0.6,1,1.7,0.5,2.5
			c-10.4,15.4-6.4,36.3,9,46.7s36.3,6.4,46.7-9c10.4-15.4,6.4-36.3-9-46.7c-12.5-8.5-29.1-7.6-40.6,2.2c-0.7,0.7-1.9,0.6-2.5-0.1
			c-0.7-0.7-0.6-1.9,0.1-2.5c0,0,0.1-0.1,0.1-0.1c15.7-13.3,39.2-11.3,52.4,4.4c13.3,15.7,11.3,39.2-4.4,52.4
			C113.5,130.2,105,133.4,96.2,133.4L96.2,133.4z M49.2,130.4c-1,0-1.8-0.8-1.8-1.8c0-0.3,0.1-0.5,0.2-0.7l3.1-6.7
			c-1.8-3.3-3.3-6.8-4.3-10.5l-11.4-4.3V85.9l11.4-4.3c1.1-3.6,2.5-7.1,4.3-10.5l-3.2-7.1c-0.4-0.9,0.1-2,1-2.4
			c0.9-0.4,1.9,0,2.3,0.9l4,8.7l-0.5,0.8c-2,3.6-3.6,7.4-4.7,11.3l-0.2,0.9l-10.8,4v15.5l10.8,4l0.2,0.9c1.1,4,2.6,7.8,4.7,11.3
			l0.5,0.8l-3.8,8.4C50.5,130,49.9,130.4,49.2,130.4L49.2,130.4z M143.1,130.4c-0.7,0-1.3-0.4-1.6-1.1l-3.8-8.4l0.5-0.8
			c2-3.6,3.6-7.4,4.7-11.3l0.2-0.9l10.8-4V88.4l-10.8-4l-0.2-0.9c-1.1-4-2.6-7.8-4.7-11.3l-0.5-0.8l4-8.7c0.4-0.9,1.5-1.3,2.4-0.8
			c0.8,0.4,1.2,1.4,0.9,2.3l-3.2,7.1c1.8,3.3,3.3,6.8,4.3,10.5l11.4,4.3v20.5l-11.4,4.3c-1.1,3.6-2.5,7.1-4.3,10.5l3.1,6.7
			c0.4,0.9,0,2-0.9,2.4C143.6,130.4,143.4,130.4,143.1,130.4L143.1,130.4z M71.3,54.6l-8.7-4c-0.9-0.4-1.3-1.5-0.8-2.4
			c0.4-0.8,1.4-1.2,2.3-0.9l7.1,3.2c3.3-1.8,6.8-3.3,10.5-4.3l4.3-11.4h5.4c1,0,1.8,0.9,1.7,1.9c0,0.9-0.8,1.7-1.7,1.7h-2.9l-4,10.8
			l-0.9,0.2c-4,1.1-7.8,2.6-11.3,4.7L71.3,54.6z M121,54.6l-0.8-0.5c-3.6-2-7.4-3.6-11.3-4.7l-0.9-0.2l-4-10.8h-3
			c-1,0-1.8-0.9-1.7-1.9c0-0.9,0.8-1.7,1.7-1.7h5.5l4.3,11.4c3.6,1.1,7.1,2.5,10.5,4.3l7.1-3.2c0.9-0.4,2,0,2.4,0.9
			c0.4,0.9,0,2-0.9,2.4l0,0L121,54.6z"/>
	</g>
	<g id="Group_150" transform="translate(671.682 195.473)">
		<path id="Path_463" d="M124.6,69H87.1V31.5l11,11l12.2-12.2c0.7-0.7,1.8-0.7,2.5,0c0.7,0.7,0.7,1.8,0,2.5l0,0L98.1,47.7l-7.4-7.4
			v25.2h25.2l-7.4-7.4l14.7-14.7c0.7-0.7,1.9-0.7,2.5,0.1c0.7,0.7,0.7,1.8,0,2.5L113.5,58L124.6,69z"/>
	</g>
	<g id="Group_151" transform="translate(627.747 195.473)">
		<path id="Path_464" d="M69,69H31.5l11-11L30.4,45.8c-0.7-0.7-0.7-1.8,0-2.5c0.7-0.7,1.8-0.7,2.5,0L47.7,58l-7.4,7.4h25.2V40.2
			L58,47.6L43.3,32.9c-0.7-0.7-0.7-1.8,0-2.5c0.7-0.7,1.8-0.7,2.5,0L58,42.5l11-11L69,69z"/>
	</g>
	<g id="Group_152" transform="translate(627.747 247.989)">
		<path id="Path_465" d="M31.7,104.8c-1,0-1.8-0.8-1.8-1.8c0-0.5,0.2-0.9,0.5-1.3l2.9-2.9c0.7-0.7,1.9-0.7,2.5,0.1
			c0.7,0.7,0.7,1.8,0,2.5l-2.9,2.9C32.6,104.6,32.1,104.8,31.7,104.8z"/>
	</g>
	<g id="Group_153" transform="translate(628.48 239.408)">
		<path id="Path_466" d="M43.8,126.2c-1,0-1.8-0.8-1.8-1.8c0-0.5,0.2-0.9,0.5-1.3l14.7-14.7l7.4,7.4V90.7H39.5l7.4,7.4l-5,5
			c-0.7,0.7-1.9,0.7-2.5-0.1c-0.7-0.7-0.7-1.8,0-2.5l2.4-2.4l-11-11h37.5v37.5l-11-11l-12.2,12.2C44.8,126,44.3,126.2,43.8,126.2z"
			/>
	</g>
	<g id="Group_154" transform="translate(671.682 239.408)">
		<path id="Path_467" d="M111.5,126.2c-0.5,0-0.9-0.2-1.3-0.5l-12.2-12.2l-11,11V87.1h37.5l-11,11l12.2,12.2
			c0.7,0.7,0.7,1.9-0.1,2.5c-0.7,0.7-1.8,0.7-2.5,0l-14.7-14.7l7.4-7.4H90.7v25.2l7.4-7.4l14.7,14.7c0.7,0.7,0.7,1.8,0,2.5
			C112.5,126,112,126.2,111.5,126.2L111.5,126.2z"/>
	</g>
	<g id="Group_157" transform="translate(648.877 216.668)">
		<g id="Group_155">
			<path id="Path_468" d="M83.6,74.1L71,64.2l-10.7,8.2c-0.8,0.6-1.9,0.5-2.5-0.2c-0.6-0.8-0.5-1.9,0.2-2.5c0,0,0.1-0.1,0.1-0.1
				L71,59.6l12.3,9.6L94.6,58c0.7-0.7,1.9-0.7,2.5,0.1c0.7,0.7,0.7,1.8,0,2.5L83.6,74.1z"/>
		</g>
		<g id="Group_156" transform="translate(12.25 0)">
			<path id="Path_469" d="M83.6,69.5c-1,0-1.8-0.8-1.8-1.8c0,0,0,0,0,0V61h-6.7c-1,0-1.8-0.9-1.7-1.9c0-0.9,0.8-1.7,1.7-1.7h10.3
				v10.3C85.4,68.7,84.6,69.5,83.6,69.5z"/>
		</g>
	</g>
	<g id="Group_158" transform="translate(648.876 222.513)">
		<path id="Path_470" d="M97.6,92.8H57.4V75.5l13.6-10.4l13,10.2l6.1-6.1h7.6v6.3c0,1-0.7,1.8-1.7,1.9c-1,0-1.8-0.7-1.9-1.7
			c0,0,0-0.1,0-0.1v-2.7h-2.5L84.3,80L70.9,69.6L61,77.2v12H94v-4.1c0-1,0.7-1.8,1.7-1.9c1,0,1.8,0.7,1.9,1.7c0,0,0,0.1,0,0.1V92.8z
			"/>
	</g>
	<g id="Group_159" transform="translate(653.981 222.72)">
		<path id="Path_471" d="M65.8,92.6c-1,0-1.8-0.8-1.8-1.8l0,0V67.1c0-1,0.9-1.8,1.9-1.7c0.9,0,1.7,0.8,1.7,1.7v23.7
			C67.6,91.8,66.8,92.6,65.8,92.6C65.8,92.6,65.8,92.6,65.8,92.6z"/>
	</g>
	<g id="Group_160" transform="translate(659.713 227.189)">
		<path id="Path_472" d="M73.3,88.2c-1,0-1.8-0.8-1.8-1.8l0,0V72.9c0-1,0.9-1.8,1.9-1.7c0.9,0,1.7,0.8,1.7,1.7v13.4
			C75.1,87.3,74.3,88.2,73.3,88.2z"/>
	</g>
</g>
</svg>
