<?xml version="1.0" encoding="utf-8"?>
<!-- Generator: Adobe Illustrator 25.4.1, SVG Export Plug-In . SVG Version: 6.00 Build 0)  -->
<svg version="1.1" id="Layer_1" xmlns="http://www.w3.org/2000/svg" xmlns:xlink="http://www.w3.org/1999/xlink" x="0px" y="0px"
	 viewBox="0 0 200 200" style="enable-background:new 0 0 200 200;" xml:space="preserve">
<g id="Group_135" transform="translate(-623 -323.528)">
	<path id="Path_424" d="M757.8,410c-1.2,0.3-1.8,1.6-1.5,2.7c0.7,2.6,1.3,5.2,1.6,7.9c0.1,1.1,1.1,1.9,2.2,2c0.1,0,0.2,0,0.3,0
		c1.2-0.1,2.1-1.2,1.9-2.4c0,0,0,0,0,0c-0.3-2.9-0.9-5.8-1.7-8.6C760.2,410.3,758.9,409.7,757.8,410L757.8,410z"/>
	<path id="Path_425" d="M747.6,395.8c0.8,1,2.1,1.1,3.1,0.4c1-0.8,1.1-2.1,0.4-3.1c-10.2-13.1-25.9-20.8-42.6-20.7c-1,0-2,0-2.9,0.1
		c-1.2,0.1-2.2,1.1-2.1,2.3c0.1,1.2,1.1,2.2,2.3,2.1l0.5,0v17.6c0,1.2,1,2.2,2.2,2.2c1.2,0,2.2-1,2.2-2.2V377
		c7.1,1.1,13.7,7.7,18.3,18.4c0.5,1.1,1.8,1.6,2.9,1.1c1.1-0.5,1.6-1.8,1.1-2.9c-2.2-5.4-5.4-10.3-9.5-14.5
		C733.1,382.2,741.5,388,747.6,395.8z"/>
	<path id="Path_426" d="M708.5,480.5c4.4,0,8.9-0.5,13.2-1.6c1.2-0.3,1.9-1.4,1.7-2.6c-0.3-1.2-1.4-1.9-2.6-1.7c0,0-0.1,0-0.1,0
		c-3.2,0.8-6.6,1.3-9.9,1.4v-24.2h5.5c1.2,0,2.2-1,2.2-2.2c0-1.2-1-2.2-2.2-2.2c0,0,0,0,0,0h-5.5v-35.3c0-1.2-1-2.2-2.2-2.2
		c-1.2,0-2.2,1-2.2,2.2l0,0v35.3h-21.8c-1.7-6.9-2.5-13.9-2.5-21c0-4.7,0.4-9.4,1.1-14c0.2-1.2-0.6-2.3-1.8-2.6
		c-1.2-0.2-2.3,0.6-2.6,1.8c0,0,0,0.1,0,0.1c-0.8,4.9-1.1,9.8-1.1,14.7c0,7.1,0.8,14.1,2.4,21h-16.5c-7.1-15.2-6-32.9,2.8-47.2
		c0.7-1,0.4-2.4-0.6-3.1c-1-0.7-2.4-0.4-3.1,0.6c0,0,0,0.1-0.1,0.1c-15.7,25.4-7.9,58.7,17.5,74.5
		C688.6,477.7,698.5,480.5,708.5,480.5z M706.3,451.9v24.1c-6-1-11.7-5.8-16.1-13.9c-1.8-3.3-3.2-6.7-4.4-10.2H706.3z M681.2,451.9
		c1.3,4.3,3,8.4,5.1,12.4c1.9,3.5,4.3,6.7,7.1,9.6c-11.5-3.7-21.3-11.5-27.6-21.9L681.2,451.9z"/>
	<path id="Path_427" d="M735.8,409.9c-1.2,0.2-2,1.3-1.8,2.5c0,0,0,0,0,0c0.7,4.6,1.1,9.3,1.1,14c0,1.2,1,2.2,2.2,2.2
		c1.2,0,2.2-1,2.2-2.2c0-4.9-0.4-9.8-1.1-14.7C738.1,410.6,737,409.8,735.8,409.9C735.8,409.9,735.8,409.9,735.8,409.9z"/>
	<path id="Path_428" d="M787.4,437.5h-11.6v-7.7c0-3-2.5-5.5-5.5-5.5h-23.2c-3,0-5.5,2.5-5.5,5.5v7.7H730c-4,0-7.2,3.2-7.2,7.2v14.9
		c0,2.2,1.3,4.2,3.3,5.1v22.5c0,3.7,3,6.6,6.6,6.6h51.9c3.7,0,6.6-3,6.6-6.6v-22.5c2-0.9,3.3-2.9,3.3-5.1v-14.9
		C794.6,440.7,791.4,437.5,787.4,437.5z M746,429.8c0-0.6,0.5-1.1,1.1-1.1l0,0h23.2c0.6,0,1.1,0.5,1.1,1.1v7.7H746V429.8z
		 M727.3,444.7c0-1.5,1.2-2.8,2.8-2.8h57.4c1.5,0,2.8,1.2,2.8,2.8v14.9c0,0.6-0.5,1.1-1.1,1.1h-60.7c-0.6,0-1.1-0.5-1.1-1.1
		L727.3,444.7z M751.6,465.1h14.3v4.4h-14.4L751.6,465.1z M784.7,489.4h-51.9c-1.2,0-2.2-1-2.2-2.2v-22.1h16.6v4.4
		c0,2.4,2,4.4,4.4,4.4h14.3c2.4,0,4.4-2,4.4-4.4v-4.4h16.6v22.1C786.9,488.4,785.9,489.4,784.7,489.4L784.7,489.4z"/>
	<path id="Path_429" d="M679.8,352.5c-11,0-19.9,8.9-19.9,19.9c0,7.6,4.8,16,8.8,21.7c1.9,2.7,4,5.3,6.2,7.7
		c3.4,3.7,4.1,3.7,4.9,3.7s1.5,0,4.9-3.7c2.2-2.4,4.3-5,6.2-7.7c4-5.7,8.8-14.1,8.8-21.7C699.7,361.4,690.8,352.6,679.8,352.5z
		 M679.8,400.5c-3.7-3.6-15.5-17.5-15.5-28.1c0.3-8.5,7.4-15.2,16-14.9c8.1,0.3,14.7,6.8,14.9,14.9
		C695.3,383,683.5,396.9,679.8,400.5L679.8,400.5z"/>
	<path id="Path_430" d="M679.8,362.5c-5.5,0-9.9,4.4-9.9,9.9c0,5.5,4.4,9.9,9.9,9.9s9.9-4.4,9.9-9.9v0
		C689.8,366.9,685.3,362.5,679.8,362.5z M679.8,377.9c-3,0-5.5-2.5-5.5-5.5c0-3,2.5-5.5,5.5-5.5c3,0,5.5,2.5,5.5,5.5
		C685.3,375.5,682.9,377.9,679.8,377.9L679.8,377.9z"/>
	<path id="Path_431" d="M784.7,433.1c1.2,0,2.2-1,2.2-2.2v-16.6c0-7.3-5.9-13.2-13.2-13.2h-80.6c-1.2,0-2.2,1-2.2,2.2
		c0,1.2,1,2.2,2.2,2.2h80.6c4.9,0,8.8,4,8.8,8.8v16.6C782.5,432.1,783.4,433.1,784.7,433.1C784.7,433.1,784.7,433.1,784.7,433.1z"/>
</g>
</svg>
