<?xml version="1.0" encoding="utf-8"?>
<!-- Generator: Adobe Illustrator 25.4.1, SVG Export Plug-In . SVG Version: 6.00 Build 0)  -->
<svg version="1.1" id="Layer_1" xmlns="http://www.w3.org/2000/svg" xmlns:xlink="http://www.w3.org/1999/xlink" x="0px" y="0px"
	 viewBox="0 0 200 200" style="enable-background:new 0 0 200 200;" xml:space="preserve">
<style type="text/css">
	.st0{fill:#3B818F;}
</style>
<g id="Group_34" transform="translate(-1385 -450)">
	<path id="Path_35" class="st0" d="M1533.2,565.9v-12.4c0-1.6-1.3-2.8-2.8-2.8l0,0h-90.7c-1.6,0-2.8,1.3-2.8,2.8v12.4
		c-16.3,1.5-28.2,16-26.7,32.3c1.5,16.3,16,28.2,32.3,26.7s28.2-16,26.7-32.3c-1.3-14.1-12.5-25.3-26.7-26.7v-9.6h85.1v9.6
		c-16.3,1.5-28.2,16-26.7,32.3c1.5,16.3,16,28.2,32.3,26.7c16.3-1.5,28.2-16,26.7-32.3C1558.5,578.4,1547.3,567.2,1533.2,565.9
		L1533.2,565.9z M1426.8,615.6c1.8-7.1,8.9-11.4,16-9.7c4.8,1.2,8.5,4.9,9.7,9.7C1444.6,620.6,1434.6,620.6,1426.8,615.6z
		 M1439.6,600c-4.1,0-7.3-3.3-7.3-7.3s3.3-7.3,7.3-7.3c4.1,0,7.3,3.3,7.3,7.3c0,0,0,0,0,0C1447,596.7,1443.7,600,1439.6,600z
		 M1463.6,595.4c0,6.1-2.4,12-6.5,16.4c-1.7-4.1-4.8-7.5-8.7-9.6c5.3-4.8,5.6-13,0.8-18.3c-4.8-5.3-13-5.6-18.3-0.8
		c-5.3,4.8-5.6,13-0.8,18.3c0.2,0.3,0.5,0.5,0.8,0.8c-4,2.1-7.1,5.5-8.7,9.6c-4.2-4.4-6.5-10.3-6.5-16.4
		c-0.1-13.3,10.6-24.1,23.9-24.2c13.3-0.1,24.1,10.6,24.2,23.9C1463.6,595.2,1463.6,595.3,1463.6,595.4L1463.6,595.4z M1517.5,615.6
		c1.8-7.1,8.9-11.4,16-9.7c4.8,1.2,8.5,4.9,9.7,9.7C1535.4,620.6,1525.4,620.6,1517.5,615.6z M1523,592.6c0-4.1,3.3-7.3,7.3-7.3
		c4.1,0,7.3,3.3,7.3,7.3c0,4.1-3.3,7.3-7.3,7.3c0,0,0,0,0,0C1526.3,600,1523,596.7,1523,592.6L1523,592.6z M1547.9,611.8
		c-1.7-4.1-4.8-7.5-8.7-9.6c5.3-4.8,5.6-13,0.8-18.3c-4.8-5.3-13-5.6-18.3-0.8c-5.3,4.8-5.6,13-0.8,18.3c0.2,0.3,0.5,0.5,0.8,0.8
		c-4,2.1-7.1,5.5-8.7,9.6c-4.2-4.4-6.5-10.3-6.5-16.4c0-13.3,10.7-24,23.9-24.1c13.3,0,24,10.7,24.1,23.9
		C1554.4,601.4,1552.1,607.3,1547.9,611.8L1547.9,611.8z"/>
	<path id="Path_36" class="st0" d="M1461,502.2h5.4c1.1,5.3,4.4,9.9,9.1,12.6l-2.1,8.9c-3.2,0.1-5.8,2.7-5.8,6v12.4
		c0,1.6,1.3,2.8,2.8,2.8h29.4c1.6,0,2.8-1.3,2.8-2.8v-12.4c0-3.2-2.6-5.9-5.8-6l-2.1-8.9c4.7-2.7,8-7.3,9.1-12.6h5.4
		c4.9,0,8.9-4,8.9-8.9V482c0-1.6-1.3-2.8-2.8-2.8h-10.6v-1.4c0-1.6-1.3-2.8-2.8-2.8h-33.4c-1.5,0-2.8,1.3-2.8,2.8v1.4h-10.6
		c-1.5,0-2.8,1.3-2.8,2.8v11.2C1452.1,498.2,1456,502.2,1461,502.2z M1489.3,516.8l1.6,6.8h-11.7l1.6-6.8
		C1483.5,517.5,1486.5,517.5,1489.3,516.8z M1496.9,539.3h-23.7v-9.6c0-0.2,0.2-0.4,0.4-0.4c0,0,0,0,0,0h23c0.2,0,0.4,0.2,0.4,0.4
		c0,0,0,0,0,0L1496.9,539.3z M1504.5,484.8h7.8v8.4c0,1.8-1.5,3.3-3.3,3.3h-4.5L1504.5,484.8z M1471.1,480.6h27.8v14
		c0,8.2-3,13.8-8.6,16.1c-3.4,1.4-7.2,1.4-10.6,0c-5.6-2.3-8.6-7.9-8.6-16.1V480.6z M1457.7,484.8h7.8v11.7h-4.5
		c-1.8,0-3.3-1.5-3.3-3.3L1457.7,484.8z"/>
</g>
</svg>
