<?xml version="1.0" encoding="utf-8"?>
<!-- Generator: Adobe Illustrator 25.4.1, SVG Export Plug-In . SVG Version: 6.00 Build 0)  -->
<svg version="1.1" id="Layer_1" xmlns="http://www.w3.org/2000/svg" xmlns:xlink="http://www.w3.org/1999/xlink" x="0px" y="0px"
	 viewBox="0 0 200 200" style="enable-background:new 0 0 200 200;" xml:space="preserve">
<style type="text/css">
	.st0{fill:#3B818F;}
</style>
<g id="Group_10" transform="translate(-0.01 8.138)">
	<g id="Group_9" transform="translate(0.01 -8.138)">
		<g id="Group_8" transform="translate(0)">
			<path id="Path_27" class="st0" d="M87.4,57.2c0.9,2.8,2.9,5.2,5.4,6.7v1.3L83.2,69c-5.3,2.1-8.6,7.2-8.4,12.9v8.4
				c0,1.3,1.1,2.4,2.4,2.4h6c1.3,0,2.4-1,2.4-2.3c0-1.3-1-2.4-2.3-2.4c0,0-0.1,0-0.1,0h-3.6v-6c-0.2-3.7,1.9-7,5.3-8.5
				c0,0,0.1,0,0.1,0l8.8-3.5l4.7,4.6c0.4,0.4,1,0.7,1.6,0.7h0c0.6,0,1.2-0.3,1.7-0.7l4.4-4.6l8.8,3.5c0,0,0.1,0,0.1,0
				s5.3,1.9,5.3,8.5v6H90.6c-1.3,0-2.4,1-2.4,2.3s1,2.4,2.3,2.4c0,0,0.1,0,0.1,0h32.1c1.3,0,2.4-1.1,2.4-2.4v-8.4
				c0.2-5.7-3.1-10.8-8.4-12.9l-9.4-3.8v-1.3c2.6-1.5,4.5-3.9,5.4-6.7c3.6-0.3,6.4-3.5,6.1-7.1c-0.1-1.8-1-3.5-2.4-4.6v-4.1
				c0-8.7-7.1-15.8-15.8-15.8h-1.1c-8.7,0-15.8,7.1-15.8,15.8v4.1c-2.8,2.3-3.3,6.5-1,9.3C83.8,56.1,85.5,57,87.4,57.2L87.4,57.2z
				 M113.3,49.2c0.1,0,0.2,0,0.3,0.1c0.7,0.8,0.7,2-0.1,2.7c-0.1,0.1-0.1,0.1-0.2,0.2L113.3,49.2z M102.5,66.8l-2.6,2.7l-2.4-2.4
				v-1.6c0.5,0.1,1,0.1,1.4,0.1h2.1c0.5,0,1,0,1.4-0.1L102.5,66.8z M108.6,53.4c0,4.1-3.4,7.5-7.5,7.5H99c-4.1,0-7.5-3.3-7.5-7.5
				v-6.2c3-0.3,8.4-1.4,12.6-4.9c1,1.9,2.6,3.4,4.5,4.3L108.6,53.4L108.6,53.4z M88.4,41.3c0-6.1,5-11.1,11.1-11.1h1.1
				c6.1,0,11.1,5,11.1,11.1v1.5c0,0-0.1,0-0.1,0l-0.1,0c-3.3-0.7-4.3-5.1-4.3-5.1c-0.3-1.3-1.5-2.1-2.8-1.8
				c-0.6,0.1-1.1,0.5-1.4,0.9c-4.2,5.9-13.7,5.9-13.8,5.9h0c-0.1,0-0.2,0-0.2,0l-0.1,0c-0.1,0-0.1,0-0.2,0c0,0-0.1,0-0.1,0
				c0,0-0.1,0-0.1,0l-0.1,0L88.4,41.3L88.4,41.3z M86.4,49.3c0.1,0,0.3-0.1,0.4-0.1v3c-0.9-0.6-1.1-1.8-0.5-2.7
				C86.3,49.4,86.3,49.4,86.4,49.3z"/>
			<path id="Path_28" class="st0" d="M121.6,33.7c15.3,5,28.4,15.2,37,28.7c0.7,1.1,2.2,1.4,3.3,0.7c1.1-0.7,1.4-2.1,0.7-3.2
				c-9.3-14.4-23.2-25.3-39.5-30.6c-1.2-0.4-2.6,0.3-2.9,1.6C119.8,32,120.5,33.2,121.6,33.7L121.6,33.7z"/>
			<path id="Path_29" class="st0" d="M37.9,63.1c1.1,0.7,2.5,0.4,3.2-0.7c0,0,0,0,0,0c8.8-13.7,22-23.9,37.5-28.9
				c1.2-0.4,1.9-1.7,1.5-3c-0.4-1.2-1.7-1.9-2.9-1.5c-16.5,5.3-30.7,16.2-40.1,30.8C36.4,60.9,36.8,62.4,37.9,63.1z"/>
			<path id="Path_30" class="st0" d="M70.8,163.4c-12.2-5.6-22.5-14.5-29.7-25.8c-0.7-1.1-2.1-1.4-3.2-0.8s-1.4,2.1-0.8,3.2
				c0,0,0,0,0,0.1c7.7,12,18.7,21.6,31.7,27.6c1.2,0.6,2.6,0.1,3.1-1.1C72.5,165.5,72,164.1,70.8,163.4
				C70.8,163.5,70.8,163.5,70.8,163.4L70.8,163.4z"/>
			<path id="Path_31" class="st0" d="M161.9,136.9c-1.1-0.7-2.5-0.4-3.2,0.7c-7.1,11.1-17.2,20-29.2,25.6c-1.2,0.6-1.7,2-1.1,3.1
				s2,1.7,3.1,1.1c12.8-6,23.6-15.5,31.2-27.3C163.4,139.1,163,137.6,161.9,136.9z"/>
			<path id="Path_32" class="st0" d="M75.8,131.2v-8.4c0.2-5.7-3.1-10.8-8.4-12.9l-9.4-3.8v-1.3c2.6-1.5,4.5-3.9,5.4-6.7
				c3.6-0.3,6.4-3.5,6.1-7.1c-0.1-1.8-1-3.5-2.4-4.6v-4.1c0-8.7-7.1-15.8-15.8-15.8h-1.1c-8.7,0-15.8,7.1-15.8,15.8v4.1
				c-2.8,2.3-3.3,6.5-1,9.3c1.2,1.4,2.9,2.3,4.7,2.4c0.9,2.8,2.9,5.2,5.4,6.7v1.3l-9.6,3.8c-5.3,2.1-8.6,7.2-8.4,12.9v8.4
				c0,1.3,1.1,2.4,2.4,2.4h6c1.3,0,2.3-1.1,2.3-2.4c0-1.3-1-2.3-2.3-2.3h-3.6v-6c-0.2-3.7,1.9-7,5.3-8.5c0,0,0.1,0,0.1,0l8.8-3.5
				l4.7,4.6c0.4,0.4,1,0.7,1.6,0.7h0c0.6,0,1.2-0.3,1.7-0.7l4.4-4.6l8.8,3.5c0,0,0.1,0,0.1,0c3.4,1.4,5.5,4.8,5.3,8.5v6H41.3
				c-1.3,0-2.3,1.1-2.3,2.4c0,1.3,1,2.3,2.3,2.3h32.1C74.7,133.5,75.8,132.5,75.8,131.2z M64,90.1c0.1,0,0.2,0,0.3,0.1
				c0.7,0.8,0.7,2-0.1,2.7c-0.1,0.1-0.1,0.1-0.2,0.2V90.1z M37.5,93.1c-0.9-0.6-1.1-1.8-0.5-2.7c0-0.1,0.1-0.1,0.2-0.2
				c0.1,0,0.3-0.1,0.4-0.1V93.1z M39.9,83.6L39.9,83.6c-0.1,0-0.2,0-0.3,0l-0.1,0c-0.1,0-0.1,0-0.2,0c0,0-0.1,0-0.1,0
				c0,0-0.1,0-0.1,0c0,0,0,0-0.1,0v-1.5c0-6.1,5-11.1,11.1-11.1h1.1c6.1,0,11.1,5,11.1,11.1v1.5c0,0-0.1,0-0.1,0c0,0,0,0-0.1,0
				c-3.3-0.7-4.3-5.1-4.3-5.1c-0.3-1.3-1.5-2.1-2.8-1.8c-0.6,0.1-1.1,0.5-1.4,0.9C49.4,83.5,40,83.6,39.9,83.6L39.9,83.6z
				 M53.3,107.7l-2.6,2.7l-2.4-2.4v-1.6c0.5,0.1,1,0.1,1.4,0.1h2.1c0.5,0,1,0,1.4-0.1L53.3,107.7L53.3,107.7z M51.8,101.8h-2.1
				c-4.1,0-7.5-3.4-7.5-7.5v-6.2l0,0c3-0.3,8.4-1.4,12.6-4.9c1,1.9,2.6,3.4,4.5,4.3v6.7C59.3,98.5,56,101.8,51.8,101.8L51.8,101.8z"
				/>
			<path id="Path_33" class="st0" d="M166.1,109.9l-9.4-3.8v-1.3c2.6-1.5,4.5-3.9,5.4-6.7c3.6-0.3,6.4-3.5,6.1-7.1
				c-0.1-1.8-1-3.5-2.4-4.6v-4.1c0-8.7-7.1-15.8-15.8-15.8h-1.1c-8.7,0-15.8,7.1-15.8,15.8v4.1c-2.8,2.3-3.3,6.5-1,9.3
				c1.2,1.4,2.9,2.3,4.7,2.4c0.9,2.8,2.9,5.2,5.4,6.7v1.3l-9.6,3.8c-5.3,2.1-8.6,7.2-8.4,12.9v8.4c0,1.3,1.1,2.4,2.4,2.4h6
				c1.3,0,2.3-1.1,2.3-2.4c0-1.3-1-2.3-2.3-2.3h-3.6v-6c-0.2-3.7,1.9-7,5.3-8.5c0,0,0.1,0,0.1,0l8.8-3.5l4.7,4.6
				c0.4,0.4,1,0.7,1.6,0.7h0c0.6,0,1.2-0.3,1.7-0.7l4.4-4.6l8.8,3.5c0,0,0.1,0,0.1,0c3.4,1.4,5.5,4.8,5.3,8.5v6H140
				c-1.3,0-2.4,1-2.4,2.3c0,1.3,1,2.4,2.3,2.4c0,0,0.1,0,0.1,0h32.1c1.3,0,2.4-1.1,2.4-2.4v-8.4C174.7,117.2,171.3,112,166.1,109.9z
				 M162.8,90.1c0.1,0,0.2,0,0.3,0.1c0.7,0.8,0.7,2-0.1,2.7c-0.1,0.1-0.1,0.1-0.2,0.2V90.1z M136.3,93.1c-0.9-0.6-1.1-1.8-0.5-2.7
				c0-0.1,0.1-0.1,0.2-0.2c0.1,0,0.3-0.1,0.4-0.1V93.1z M138.6,83.6L138.6,83.6c-0.1,0-0.2,0-0.2,0l-0.1,0c-0.1,0-0.1,0-0.2,0
				c0,0-0.1,0-0.1,0c0,0-0.1,0-0.1,0c0,0,0,0-0.1,0v-1.5c0-6.1,5-11.1,11.1-11.1h1.1c6.1,0,11.1,5,11.1,11.1v1.5c0,0-0.1,0-0.1,0
				c0,0,0,0-0.1,0c-3.3-0.7-4.3-5.1-4.3-5.1c-0.3-1.3-1.5-2.1-2.8-1.8c-0.6,0.1-1.1,0.5-1.4,0.9C148.2,83.5,138.7,83.6,138.6,83.6
				L138.6,83.6z M152,107.7l-2.6,2.7L147,108v-1.6c0.5,0.1,1,0.1,1.4,0.1h2.1c0.5,0,1,0,1.4-0.1L152,107.7z M150.6,101.8h-2.1
				c-4.1,0-7.5-3.4-7.5-7.5v-6.2l0,0c3-0.3,8.4-1.4,12.6-4.9c1,1.9,2.6,3.4,4.5,4.3v6.7C158,98.5,154.7,101.8,150.6,101.8
				L150.6,101.8z"/>
			<path id="Path_34" class="st0" d="M116.6,150.9l-9.4-3.8v-1.3c2.6-1.5,4.5-3.9,5.4-6.7c3.6-0.3,6.4-3.5,6.1-7.1
				c-0.1-1.8-1-3.5-2.4-4.6v-4.1c0-8.7-7.1-15.8-15.8-15.8h-1.1c-8.7,0-15.8,7.1-15.8,15.8v4.1c-2.8,2.3-3.3,6.5-1,9.3
				c1.2,1.4,2.9,2.3,4.7,2.4c0.9,2.8,2.9,5.2,5.4,6.7v1.3l-9.6,3.8c-5.3,2.1-8.6,7.2-8.4,12.9v8.4c0,1.3,1.1,2.4,2.4,2.4
				c0,0,0,0,0,0h6c1.3,0,2.4-1,2.4-2.3c0-1.3-1-2.4-2.3-2.4c0,0-0.1,0-0.1,0h-3.6v-6c-0.2-3.7,1.9-7,5.3-8.5c0,0,0.1,0,0.1,0
				l8.8-3.5l4.7,4.6c0.4,0.4,1,0.7,1.6,0.7h0c0.6,0,1.2-0.3,1.7-0.7l4.4-4.6l8.8,3.5c0,0,0.1,0,0.1,0c3.4,1.4,5.5,4.8,5.3,8.5v6
				H90.6c-1.3,0-2.4,1-2.4,2.3c0,1.3,1,2.4,2.3,2.4c0,0,0.1,0,0.1,0h32.1c1.3,0,2.4-1.1,2.4-2.4v-8.4
				C125.2,158.1,121.9,152.9,116.6,150.9z M113.3,131.1c0.1,0,0.2,0,0.3,0.1c0.7,0.8,0.7,2-0.1,2.7c-0.1,0.1-0.1,0.1-0.2,0.2V131.1z
				 M86.8,134.1c-0.9-0.6-1.1-1.8-0.5-2.7c0-0.1,0.1-0.1,0.2-0.2c0.1,0,0.3-0.1,0.4-0.1V134.1z M89.1,124.6L89.1,124.6
				c-0.1,0-0.2,0-0.2,0c0,0,0,0-0.1,0c-0.1,0-0.1,0-0.2,0c0,0-0.1,0-0.1,0s-0.1,0-0.1,0c0,0,0,0-0.1,0v-1.5c0-6.1,5-11.1,11.1-11.1
				h1.1c6.1,0,11.1,5,11.1,11.1v1.5c0,0-0.1,0-0.1,0l-0.1,0c-3.3-0.7-4.3-5.1-4.3-5.1c-0.3-1.3-1.5-2.1-2.8-1.8
				c-0.6,0.1-1.1,0.5-1.4,0.9C98.7,124.5,89.3,124.6,89.1,124.6L89.1,124.6z M102.5,148.7l-2.6,2.7l-2.4-2.4v-1.6
				c0.5,0.1,1,0.1,1.4,0.1h2.1c0.5,0,1,0,1.4-0.1L102.5,148.7z M101.1,142.8H99c-4.1,0-7.5-3.4-7.5-7.5v-6.2l0,0
				c3-0.3,8.4-1.4,12.6-4.9c1,1.9,2.6,3.4,4.5,4.3v6.7C108.6,139.4,105.2,142.8,101.1,142.8L101.1,142.8z"/>
		</g>
	</g>
</g>
</svg>
