<?xml version="1.0" encoding="utf-8"?>
<!-- Generator: Adobe Illustrator 25.4.1, SVG Export Plug-In . SVG Version: 6.00 Build 0)  -->
<svg version="1.1" id="Layer_1" xmlns="http://www.w3.org/2000/svg" xmlns:xlink="http://www.w3.org/1999/xlink" x="0px" y="0px"
	 viewBox="0 0 200 200" style="enable-background:new 0 0 200 200;" xml:space="preserve">
<style type="text/css">
	.st0{fill-rule:evenodd;clip-rule:evenodd;fill:#3B818F;}
</style>
<path id="Path_21" class="st0" d="M151,139.9c-13.2,0-23.9,10.7-24,24c0,2.6,1.4,6.3,8.2,8.8c5.1,1.7,10.4,2.5,15.7,2.4
	c11.9,0,24-3.5,24-11.2C175,150.6,164.3,139.9,151,139.9z M151,170.7c-10.9,0-19.7-3.1-19.7-6.9c0-10.9,8.8-19.7,19.7-19.7
	s19.7,8.8,19.7,19.7C170.7,167.6,161.9,170.7,151,170.7z M138.8,126.1c0,6.7,5.5,12.2,12.2,12.2c6.7,0,12.2-5.5,12.2-12.2
	c0-6.7-5.5-12.2-12.2-12.2c0,0,0,0,0,0C144.3,113.9,138.8,119.3,138.8,126.1z M159,126.1c0,4.4-3.6,8-8,8s-8-3.6-8-8s3.6-8,8-8
	c0,0,0,0,0,0C155.4,118.1,159,121.7,159,126.1L159,126.1z M49,138.3c6.7,0,12.2-5.5,12.2-12.2c0-6.7-5.5-12.2-12.2-12.2
	c-6.7,0-12.2,5.5-12.2,12.2C36.8,132.8,42.2,138.3,49,138.3z M49,118.1c4.4,0,8,3.6,8,8c0,4.4-3.6,8-8,8c-4.4,0-8-3.6-8-8
	c0,0,0,0,0,0C41,121.7,44.6,118.1,49,118.1L49,118.1z M49,139.9c-13.2,0-23.9,10.7-24,24c0,7.7,12,11.2,24,11.2s24-3.5,24-11.2
	C72.9,150.6,62.2,139.9,49,139.9L49,139.9z M49,170.7c-10.9,0-19.7-3.1-19.7-6.9c0-10.9,8.8-19.7,19.7-19.7s19.7,8.8,19.7,19.7
	C68.7,167.6,59.8,170.7,49,170.7L49,170.7z M100,67.6c6.7,0,12.2-5.5,12.2-12.2c0-6.7-5.5-12.2-12.2-12.2c-6.7,0-12.2,5.5-12.2,12.2
	l0,0C87.8,62.1,93.3,67.6,100,67.6z M100,47.4c4.4,0,8,3.6,8,8c0,4.4-3.6,8-8,8c-4.4,0-8-3.6-8-8C92,51,95.6,47.4,100,47.4z
	 M112.2,126.1c0-6.7-5.5-12.2-12.2-12.2c-6.7,0-12.2,5.5-12.2,12.2c0,6.7,5.5,12.2,12.2,12.2C106.7,138.3,112.2,132.8,112.2,126.1
	L112.2,126.1z M92,126.1c0-4.4,3.6-8,8-8s8,3.6,8,8c0,4.4-3.6,8-8,8C95.6,134,92,130.5,92,126.1L92,126.1z M100,139.9
	c-13.2,0-23.9,10.7-24,24c0,2.6,1.4,6.3,8.2,8.8c5.1,1.7,10.4,2.5,15.7,2.4c11.9,0,24-3.5,24-11.2
	C123.9,150.6,113.2,139.9,100,139.9z M100,170.7c-10.9,0-19.7-3.1-19.7-6.9c0-10.9,8.8-19.7,19.7-19.7s19.7,8.8,19.7,19.7
	C119.7,167.6,110.9,170.7,100,170.7z M120.2,52h0.3v7.7c0,1.2,1,2.1,2.1,2.1c0.7,0,1.3-0.3,1.7-0.8l7.1-9h19.7c2.8,0,5-2.2,5-5V30
	c0-2.8-2.2-5-5-5h-30.9c-2.8,0-5,2.2-5,5v17C115.2,49.8,117.4,52,120.2,52z M119.5,30c0-0.4,0.3-0.8,0.8-0.8h30.9
	c0.4,0,0.8,0.3,0.8,0.8v17c0,0.4-0.3,0.8-0.8,0.8h-20.7c-0.7,0-1.3,0.3-1.7,0.8l-3.9,5v-3.7c0-1.2-1-2.1-2.1-2.1c0,0,0,0,0,0h-2.4
	c-0.4,0-0.8-0.3-0.8-0.8L119.5,30z M123.5,42.1c0-1.2,1-2.1,2.1-2.1h20.1c1.2,0,2.1,1,2.1,2.2c0,1.1-0.9,2.1-2.1,2.1h-20.1
	C124.4,44.2,123.5,43.3,123.5,42.1z M123.5,34.3c0-1.2,1-2.1,2.1-2.1h20.1c1.2,0,2.1,1,2.1,2.2c0,1.1-0.9,2.1-2.1,2.1h-20.1
	C124.4,36.4,123.5,35.5,123.5,34.3z M129.8,105.9c0.8,0,1.5-0.4,1.8-1.1l6.7-11.5c0.6-1,0.2-2.3-0.8-2.9c-0.3-0.2-0.7-0.3-1.1-0.3
	h-5.1V75.5c0-0.5-0.2-1-0.5-1.3l-4-5c0.3-1.8-0.8-3.5-2.6-3.8c-1.8-0.3-3.5,0.8-3.8,2.6c-0.3,1.8,0.8,3.5,2.6,3.8
	c0.2,0,0.3,0,0.5,0.1l3.5,4.4v13.9h-3.3C122.1,77,110.1,67.7,97,69.3c-10.9,1.4-19.4,9.9-20.8,20.8h-3.3V76.2l3.5-4.4
	c1.8-0.1,3.2-1.6,3.1-3.4c-0.1-1.8-1.6-3.2-3.4-3.1c-1.7,0.1-3.1,1.5-3.1,3.2c0,0.2,0,0.4,0.1,0.6l-4,5c-0.3,0.4-0.5,0.8-0.5,1.3
	v14.6h-5.1c-1.2,0-2.1,1-2.1,2.1c0,0.4,0.1,0.7,0.3,1.1l6.7,11.5c0.4,0.7,1.1,1.1,1.8,1.1h5.2v30.3c0,1.2,0.9,2.1,2.1,2.2
	c1.2,0,2.1-0.9,2.2-2.1c0,0,0-0.1,0-0.1v-30.3h40.7v30.3c0,1.2,0.9,2.1,2.1,2.2s2.1-0.9,2.2-2.1c0,0,0-0.1,0-0.1v-30.3H129.8z
	 M100,73.4c9.7,0,18,7.1,19.5,16.7h-39C82,80.5,90.3,73.4,100,73.4z M67.2,94.4h65.5l-4.2,7.2H71.4L67.2,94.4z"/>
</svg>
