<?xml version="1.0" encoding="utf-8"?>
<!-- Generator: Adobe Illustrator 25.4.1, SVG Export Plug-In . SVG Version: 6.00 Build 0)  -->
<svg version="1.1" id="Layer_1" xmlns="http://www.w3.org/2000/svg" xmlns:xlink="http://www.w3.org/1999/xlink" x="0px" y="0px"
	 viewBox="0 0 200 200" style="enable-background:new 0 0 200 200;" xml:space="preserve">
<style type="text/css">
	.st0{fill:#FFFFFF;}
	.st1{fill:#D4763D;}
</style>
<g>
	<circle id="Ellipse_8" class="st0" cx="100" cy="100" r="72"/>
	<path id="Path_48" class="st1" d="M121.3,94.4l-1.2,9.6c-0.2,1.6-1.6,2.8-3.2,2.8h-15.6v40.3c-1.6,0.1-3.3,0.2-5,0.2
		c-3.7,0-7.4-0.4-11-1.1v-39.4h-12c-1.1,0-2-0.9-2-2V92.8c0-1.1,0.9-2,2-2h12V72.7c0-11.1,8.9-20.1,20-20.1h14c1.1,0,2,0.9,2,2v12.1
		c0,1.1-0.9,2-2,2h-10c-4.4,0-8,3.6-8,8c0,0,0,0,0,0v14.1h16.8c1.8,0,3.2,1.4,3.2,3.2C121.3,94.2,121.3,94.3,121.3,94.4"/>
</g>
</svg>
