<?xml version="1.0" encoding="utf-8"?>
<!-- Generator: Adobe Illustrator 25.4.1, SVG Export Plug-In . SVG Version: 6.00 Build 0)  -->
<svg version="1.1" id="Layer_1" xmlns="http://www.w3.org/2000/svg" xmlns:xlink="http://www.w3.org/1999/xlink" x="0px" y="0px"
	 viewBox="0 0 200 200" style="enable-background:new 0 0 200 200;" xml:space="preserve">
<style type="text/css">
	.st0{fill:#3B818F;}
</style>
<g>
	<path id="Path_22" class="st0" d="M45.7,115.5c8.6,0,15.5-6.9,15.5-15.5c0-3.6-1.3-7.1-3.6-9.9l13.6-15.7c2.4,1.5,5.2,2.3,8,2.3
		c4.1,0,8-1.6,10.9-4.5l11.4,8.1c-0.2,0.3-0.3,0.6-0.5,0.9c-0.5,1.3,0.1,2.9,1.4,3.4c1.3,0.5,2.9-0.1,3.4-1.4l0,0
		c1.6-3.9,5.3-6.4,9.5-6.5c3.5,0.1,6.7,1.9,8.7,4.7c0.6,1.3,2.1,1.9,3.4,1.3c1.3-0.6,1.9-2.1,1.3-3.4c-0.1-0.2-0.3-0.5-0.5-0.7
		c-0.6-0.8-1.2-1.6-1.9-2.4l15.7-21.8c2.1,1.1,4.5,1.6,6.9,1.6c8.6,0,15.5-6.9,15.5-15.5S157.8,25,149.2,25
		c-8.6,0-15.5,6.9-15.5,15.5v0c0,4.1,1.6,8,4.5,10.9l-15.7,21.8c-5.9-3-13.1-1.8-17.8,2.9L93.3,68c1-2.1,1.6-4.4,1.6-6.8
		c0-8.6-7-15.5-15.5-15.5c-8.6,0-15.5,7-15.5,15.5c0,3.6,1.3,7.1,3.5,9.9L53.8,86.8c-7.3-4.5-16.9-2.2-21.3,5.2s-2.2,16.9,5.2,21.3
		C40.1,114.7,42.9,115.5,45.7,115.5L45.7,115.5z M149.2,30.2c5.7,0,10.3,4.6,10.3,10.3s-4.6,10.3-10.3,10.3
		c-5.7,0-10.3-4.6-10.3-10.3S143.5,30.2,149.2,30.2L149.2,30.2z M79.4,50.9c5.7,0,10.3,4.6,10.3,10.3s-4.6,10.3-10.3,10.3
		S69,66.9,69,61.2S73.6,50.9,79.4,50.9L79.4,50.9z M45.7,89.7c5.7,0,10.3,4.6,10.3,10.3c0,5.7-4.6,10.3-10.3,10.3
		c-5.7,0-10.3-4.6-10.3-10.3C35.4,94.3,40,89.7,45.7,89.7C45.7,89.7,45.7,89.7,45.7,89.7z"/>
	<path id="Path_23" class="st0" d="M162.1,145.5c1.4,0,2.6-1.2,2.6-2.6V79.3c0-1.4-1.2-2.6-2.6-2.6h-23.3c-1.4,0-2.6,1.2-2.6,2.6v5
		c0,1.4,1.2,2.6,2.6,2.6s2.6-1.2,2.6-2.6v-2.4h18.1v61C159.5,144.3,160.7,145.5,162.1,145.5C162.1,145.5,162.1,145.5,162.1,145.5z"
		/>
	<path id="Path_24" class="st0" d="M144,164.7h-2.6v-6.1c0-1.4-1.2-2.6-2.6-2.6s-2.6,1.2-2.6,2.6c0,0,0,0,0,0v6.1h-5.2v-2.6
		c0-1.4-1.2-2.6-2.6-2.6c-1.4,0-2.6,1.2-2.6,2.6v2.6h-18.1v-2.6c0-1.4-1.2-2.6-2.6-2.6c-1.4,0-2.6,1.2-2.6,2.6v2.6h-5.2V156
		c0-1.4-1.2-2.6-2.6-2.6c-1.4,0-2.6,1.2-2.6,2.6v8.6H74.2v-59.5h7.1c1.4,0,2.6-1.2,2.6-2.6s-1.2-2.6-2.6-2.6h-9.7
		c-1.4,0-2.6,1.2-2.6,2.6v62.1h-5.2v-41.4c0-1.4-1.2-2.6-2.6-2.6H38c-1.4,0-2.6,1.2-2.6,2.6v41.4h-5.2c-1.4,0-2.6,1.2-2.6,2.6
		s1.2,2.6,2.6,2.6c0,0,0,0,0,0H144c1.4,0,2.6-1.2,2.6-2.6S145.4,164.7,144,164.7C144,164.7,144,164.7,144,164.7z M40.6,164.7v-38.8
		h18.1v38.8H40.6z"/>
	<path id="Path_25" class="st0" d="M119,97.4c-13.3,0-24.1,10.8-24.1,24.1c0,13.3,10.8,24.1,24.1,24.1c13.3,0,24.1-10.8,24.1-24.1
		C143.1,108.2,132.3,97.4,119,97.4C119,97.4,119,97.4,119,97.4z M119,140.5c-10.5,0-19-8.5-19-19c0-10.5,8.5-19,19-19
		c10.5,0,19,8.5,19,19c0,0,0,0,0,0C138,132,129.5,140.5,119,140.5z"/>
	<path id="Path_26" class="st0" d="M170.2,161.9L157.3,149c-2.3-2.2-5.7-2.8-8.7-1.5l-3.5-3.5h-0.2c12.5-14.4,10.9-36.2-3.5-48.7
		s-36.2-10.9-48.7,3.5s-10.9,36.2,3.5,48.7c13,11.2,32.2,11.2,45.2,0v0.2l3.4,3.4c-1.3,2.9-0.7,6.4,1.5,8.7l12.9,12.9
		c1.4,1.5,3.4,2.3,5.5,2.4c2,0,4-0.8,5.4-2.2l0,0C173.1,169.8,173.1,165,170.2,161.9L170.2,161.9z M118.9,150.7
		c-16.1,0-29.2-13.1-29.2-29.2s13.1-29.2,29.2-29.2s29.2,13.1,29.2,29.2l0,0C148.1,137.6,135,150.7,118.9,150.7z M166.6,169.1
		c-1,0.9-2.5,0.9-3.5,0l-12.9-12.9c-1.1-0.9-1.2-2.5-0.3-3.6c0.9-1.1,2.5-1.2,3.6-0.3c0.1,0,0.1,0.1,0.1,0.1l12.9,12.9
		C167.5,166.3,167.6,168,166.6,169.1C166.6,169.1,166.6,169.1,166.6,169.1L166.6,169.1z"/>
</g>
</svg>
