<?xml version="1.0" encoding="utf-8"?>
<!-- Generator: Adobe Illustrator 25.4.1, SVG Export Plug-In . SVG Version: 6.00 Build 0)  -->
<svg version="1.1" id="Layer_1" xmlns="http://www.w3.org/2000/svg" xmlns:xlink="http://www.w3.org/1999/xlink" x="0px" y="0px"
	 viewBox="0 0 200 200" style="enable-background:new 0 0 200 200;" xml:space="preserve">
<g id="Group_148" transform="translate(-304.686 -339.764)">
	<path id="Path_449" d="M426.1,495.8c-1.2,0-2.2-1-2.2-2.2c0-0.4,0.1-0.7,0.3-1.1c7.8-13.9,12.3-34.5,12.3-56.5
		c0-21.7-4.3-41.9-11.9-55.8c-12.9-4.6-27-4.6-39.9,0c-7.6,13.9-11.9,34.2-11.9,55.8c0,22,4.5,42.6,12.3,56.5c0.6,1.1,0.2,2.4-0.8,3
		c-0.6,0.3-1.2,0.4-1.8,0.1c-33-12.3-49.7-49-37.4-81.9c6.4-17.2,20-30.9,37.3-37.4c0.1,0,0.1,0,0.2-0.1c14.3-5.3,30.1-5.3,44.5,0
		c0,0,0.1,0,0.1,0.1c32.9,12.4,49.6,49.1,37.2,82c-6.5,17.2-20.1,30.8-37.4,37.3C426.7,495.7,426.4,495.8,426.1,495.8L426.1,495.8z
		 M430.8,382.8c6.4,14.2,10.1,33.2,10.1,53.2c0,20-3.6,39-10.1,53.2c29.4-14.5,41.5-50,27-79.4C452.1,398,442.6,388.5,430.8,382.8
		L430.8,382.8z M378.5,382.8c-29.4,14.5-41.4,50-27,79.4c5.8,11.7,15.3,21.2,27,27c-6.5-14.2-10.1-33.2-10.1-53.2
		S372,396.9,378.5,382.8L378.5,382.8z"/>
	<path id="Path_450" d="M442.9,463.6c-1.2,0-2.2-1-2.2-2.2c0-1,0.7-1.9,1.6-2.1c7.1-1.7,13.8-4.8,19.8-9c2.4-9.4,2.4-19.2,0-28.6
		c-8.6-6.1-22-10.6-37.8-12.7c-1.2-0.1-2.1-1.2-1.9-2.4c0.1-1.2,1.2-2.1,2.4-1.9c0,0,0,0,0.1,0c16.9,2.2,31.2,7.2,40.4,14
		c0.4,0.3,0.7,0.7,0.8,1.2c2.9,10.6,2.9,21.8,0,32.4c-0.1,0.5-0.4,0.9-0.8,1.2c-6.6,4.8-14,8.2-21.9,10.2
		C443.3,463.6,443.1,463.6,442.9,463.6L442.9,463.6z"/>
	<path id="Path_451" d="M366.4,463.6c-0.2,0-0.4,0-0.6-0.1c-7.9-1.9-15.3-5.4-21.9-10.2c-0.4-0.3-0.7-0.7-0.8-1.2
		c-2.9-10.6-2.9-21.8,0-32.4c0.1-0.5,0.4-0.9,0.8-1.2c9.2-6.8,23.6-11.8,40.4-14c1.2-0.2,2.3,0.7,2.5,1.9c0.2,1.2-0.7,2.3-1.9,2.5
		c0,0,0,0-0.1,0c-15.8,2.1-29.1,6.6-37.8,12.7c-2.4,9.4-2.4,19.2,0,28.6c6,4.2,12.7,7.3,19.8,9c1.2,0.3,1.9,1.5,1.5,2.7
		C368.3,462.9,367.4,463.6,366.4,463.6L366.4,463.6z"/>
	<path id="Path_452" d="M404.7,387.9c-1.2,0-2.2-1-2.2-2.2v0v-11.2c0-1.2,1-2.2,2.2-2.2c1.2,0,2.2,1,2.2,2.2v11.2
		C406.9,386.9,405.9,387.9,404.7,387.9L404.7,387.9L404.7,387.9z"/>
	<path id="Path_453" d="M466.1,438.1h-27.4c-1.2,0-2.2-0.9-2.3-2.1c0-1.2,0.9-2.2,2.1-2.3c0,0,0.1,0,0.1,0h27.4
		c1.2,0,2.2,0.9,2.3,2.1c0,1.2-0.9,2.2-2.1,2.3C466.2,438.1,466.2,438.1,466.1,438.1z"/>
	<path id="Path_454" d="M370.6,438.1h-27.4c-1.2,0-2.2-1.1-2.1-2.3c0-1.2,1-2.1,2.1-2.1h27.4c1.2,0,2.2,0.9,2.3,2.1
		c0,1.2-0.9,2.2-2.1,2.3C370.7,438.1,370.6,438.1,370.6,438.1L370.6,438.1z"/>
	<path id="Path_455" d="M385.2,468.8c-4.3,0-7.8-3.5-7.8-7.8v-22.4c0-9.2,7.5-16.7,16.7-16.7c1.2,0,2.2,0.9,2.3,2.1
		c0,1.2-0.9,2.2-2.1,2.3c0,0-0.1,0-0.1,0c-6.8,0-12.3,5.5-12.3,12.3V461c0,1.9,1.4,3.5,3.3,3.5c1.9,0,3.5-1.4,3.5-3.3
		c0-0.1,0-0.1,0-0.2v-14c0-1.2,1.1-2.2,2.3-2.1c1.2,0,2.1,1,2.1,2.1v14C393,465.3,389.5,468.8,385.2,468.8z"/>
	<path id="Path_456" d="M404.7,420.5c-8,0-14.4-6.5-14.4-14.4c0-8,6.5-14.4,14.4-14.4c8,0,14.4,6.5,14.4,14.4
		C419.1,414,412.6,420.5,404.7,420.5z M404.7,396c-5.5,0-10,4.5-10,10c0,5.5,4.5,10,10,10c5.5,0,10-4.5,10-10
		C414.7,400.5,410.2,396,404.7,396z"/>
	<path id="Path_457" d="M404.7,507.3c-1.2,0-2.2-1-2.2-2.2v0v-33.6c0-1.2,0.9-2.2,2.1-2.3c1.2,0,2.2,0.9,2.3,2.1c0,0,0,0.1,0,0.1
		v33.6C406.9,506.3,405.9,507.3,404.7,507.3z"/>
	<path id="Path_458" d="M418.5,507.2h-27.7c-1.2,0-2.2-1-2.2-2.2v0v-44c0-1.2,0.9-2.2,2.1-2.3c1.2,0,2.2,0.9,2.3,2.1
		c0,0,0,0.1,0,0.1v41.8h23.3V461c0-1.2,0.9-2.2,2.1-2.3c1.2,0,2.2,0.9,2.3,2.1c0,0,0,0.1,0,0.1v44
		C420.7,506.3,419.7,507.3,418.5,507.2L418.5,507.2L418.5,507.2z"/>
	<path id="Path_459" d="M424.1,468.8c-4.3,0-7.8-3.5-7.8-7.8v-14c0-1.2,0.9-2.2,2.1-2.3c1.2,0,2.2,0.9,2.3,2.1c0,0,0,0.1,0,0.1v14
		c0,1.9,1.4,3.5,3.3,3.5c1.9,0,3.5-1.4,3.5-3.3c0-0.1,0-0.1,0-0.2v-22.4c0-6.8-5.5-12.3-12.3-12.3c-1.2,0-2.2-1.1-2.1-2.3
		c0-1.2,1-2.1,2.1-2.1c9.2,0,16.7,7.5,16.7,16.7V461C432,465.3,428.5,468.8,424.1,468.8z"/>
	<path id="Path_460" d="M408.9,426.3h-8.4c-1.2,0-2.2-1.1-2.1-2.3c0-1.2,1-2.1,2.1-2.1h8.4c1.2,0,2.2,1.1,2.1,2.3
		C411,425.4,410,426.3,408.9,426.3z"/>
	<path id="Path_461" d="M413.2,442h-5.6c-1.2,0-2.2-1-2.2-2.2v0v-6.2c0-1.2,1-2.2,2.2-2.2h0h4.7c1.2,0,2.2,1.1,2.1,2.3
		c0,1.2-1,2.1-2.1,2.1h-2.5v1.8h3.4c1.2,0,2.2,1.1,2.1,2.3C415.3,441,414.3,441.9,413.2,442L413.2,442z"/>
</g>
</svg>
