<?xml version="1.0" encoding="utf-8"?>
<!-- Generator: Adobe Illustrator 25.4.1, SVG Export Plug-In . SVG Version: 6.00 Build 0)  -->
<svg version="1.1" id="Layer_1" xmlns="http://www.w3.org/2000/svg" xmlns:xlink="http://www.w3.org/1999/xlink" x="0px" y="0px"
	 viewBox="0 0 200 200" style="enable-background:new 0 0 200 200;" xml:space="preserve">
<style type="text/css">
	.st0{fill:#FFFFFF;}
	.st1{fill:#D4763D;}
</style>
<circle id="Ellipse_8" class="st0" cx="100" cy="100" r="72"/>
<g id="Group_291" transform="translate(-1554.533 -4793.928)">
	<path id="Path_49" class="st1" d="M1673.8,4856.6h-38.6c-9.9,0-18,8.1-18,18v38.6c0,9.9,8.1,18,18,18h38.6c9.9,0,18-8.1,18-18
		v-38.6C1691.8,4864.7,1683.8,4856.6,1673.8,4856.6 M1685.4,4911.9c0,7.1-5.8,12.9-12.9,12.9h-36c-7.1,0-12.9-5.8-12.9-12.9v-36
		c0-7.1,5.8-12.9,12.9-12.9h36c7.1,0,12.9,5.8,12.9,12.9V4911.9z"/>
	<path id="Path_50" class="st1" d="M1654.6,4874.6c-10.7,0-19.3,8.6-19.3,19.3c0,10.7,8.6,19.3,19.3,19.3c10.7,0,19.3-8.6,19.3-19.3
		c0,0,0,0,0,0C1673.9,4883.3,1665.2,4874.6,1654.6,4874.6 M1654.6,4906.8c-7.1,0-12.9-5.8-12.9-12.9c0-7.1,5.8-12.9,12.9-12.9
		c7.1,0,12.9,5.8,12.9,12.9C1667.4,4901,1661.7,4906.8,1654.6,4906.8"/>
	<path id="Path_51" class="st1" d="M1675.2,4877.2c-2.1,0-3.9-1.7-3.9-3.9c0-2.1,1.7-3.9,3.9-3.9c2.1,0,3.9,1.7,3.9,3.9c0,0,0,0,0,0
		C1679,4875.5,1677.3,4877.2,1675.2,4877.2"/>
</g>
</svg>
