<?xml version="1.0" encoding="utf-8"?>
<!-- Generator: Adobe Illustrator 25.4.1, SVG Export Plug-In . SVG Version: 6.00 Build 0)  -->
<svg version="1.1" id="Layer_1" xmlns="http://www.w3.org/2000/svg" xmlns:xlink="http://www.w3.org/1999/xlink" x="0px" y="0px"
	 viewBox="0 0 200 200" style="enable-background:new 0 0 200 200;" xml:space="preserve">
<g id="Group_144" transform="translate(-999.902 -322.704)">
	<g id="Group_137" transform="translate(1025.922 372.858)">
		<path id="Path_434" d="M102.9,119.4c-1.3,0-2.4-1.1-2.4-2.4c0-14-11.3-25.3-25.3-25.3c-14,0-25.3,11.3-25.3,25.3
			c0,1.3-1.1,2.4-2.4,2.4c-1.3,0-2.4-1.1-2.4-2.4c0-16.6,13.4-30,30-30c16.6,0,30,13.4,30,30C105.2,118.3,104.2,119.4,102.9,119.4
			C102.9,119.4,102.9,119.4,102.9,119.4z"/>
	</g>
	<g id="Group_138" transform="translate(1031.307 354.204)">
		<path id="Path_435" d="M69.8,103.1c-10.3,0-18.6-8.3-18.6-18.6s8.3-18.6,18.6-18.6c10.3,0,18.6,8.3,18.6,18.6
			C88.4,94.8,80.1,103.1,69.8,103.1z M69.8,70.7c-7.6,0-13.8,6.2-13.8,13.8s6.2,13.8,13.8,13.8s13.8-6.2,13.8-13.8l0,0
			C83.6,76.9,77.4,70.7,69.8,70.7L69.8,70.7z"/>
	</g>
	<g id="Group_139" transform="translate(1050.794 359.588)">
		<path id="Path_436" d="M130.8,104.4c-1.3,0-2.4-1.1-2.4-2.4c0-14-11.3-25.3-25.3-25.3c-14,0-25.3,11.3-25.3,25.3
			c0,1.3-1.1,2.4-2.4,2.4c-1.3,0-2.4-1.1-2.4-2.4c0-16.6,13.4-30,30-30c16.6,0,30,13.4,30,30l0,0
			C133.2,103.4,132.2,104.4,130.8,104.4C130.8,104.4,130.8,104.4,130.8,104.4z"/>
	</g>
	<g id="Group_140" transform="translate(1056.179 340.934)">
		<path id="Path_437" d="M97.8,88.2c-10.3,0-18.6-8.3-18.6-18.6S87.5,51,97.8,51c10.3,0,18.6,8.3,18.6,18.6c0,0,0,0,0,0
			C116.4,79.9,108.1,88.2,97.8,88.2z M97.8,55.8C90.2,55.8,84,62,84,69.6s6.2,13.8,13.8,13.8s13.8-6.2,13.8-13.8l0,0
			C111.6,62,105.4,55.8,97.8,55.8L97.8,55.8z"/>
	</g>
	<g id="Group_141" transform="translate(999.902 359.588)">
		<path id="Path_438" d="M73.6,104.4c-1.3,0-2.4-1.1-2.4-2.4c0-14-11.3-25.3-25.3-25.3S20.6,88.1,20.6,102c0,1.3-1.1,2.4-2.4,2.4
			c-1.3,0-2.4-1.1-2.4-2.4c0-16.6,13.4-30,30-30s30,13.4,30,30C76,103.4,74.9,104.4,73.6,104.4C73.6,104.4,73.6,104.4,73.6,104.4z"
			/>
	</g>
	<g id="Group_142" transform="translate(1005.286 340.934)">
		<path id="Path_439" d="M40.5,88.2c-10.3,0-18.6-8.3-18.6-18.6c0-10.3,8.3-18.6,18.6-18.6c10.3,0,18.6,8.3,18.6,18.6v0
			C59.1,79.9,50.8,88.2,40.5,88.2z M40.5,55.8c-7.6,0-13.8,6.2-13.8,13.8s6.2,13.8,13.8,13.8c7.6,0,13.8-6.2,13.8-13.8
			C54.3,62,48.2,55.8,40.5,55.8L40.5,55.8z"/>
	</g>
	<g id="Group_143" transform="translate(1026.824 322.704)">
		<path id="Path_440" d="M83.4,89.4c-1.3,0-2.4-1.1-2.4-2.4V57.2c0-1.3,1.1-2.4,2.4-2.4h8.4L73.1,36.2L54.4,54.8h8.4
			c1.3,0,2.4,1.1,2.4,2.4V87c0,1.3-1.1,2.4-2.4,2.4c-1.3,0-2.4-1.1-2.4-2.4V59.6H48.6c-1.3,0-2.4-1.1-2.4-2.4c0-0.6,0.3-1.2,0.7-1.7
			l24.5-24.3c0.9-0.9,2.4-0.9,3.4,0l24.5,24.3c0.9,0.9,0.9,2.4,0,3.4c-0.4,0.5-1.1,0.7-1.7,0.7H85.8V87
			C85.8,88.3,84.7,89.4,83.4,89.4z"/>
	</g>
</g>
</svg>
