<?xml version="1.0" encoding="utf-8"?>
<!-- Generator: Adobe Illustrator 25.4.1, SVG Export Plug-In . SVG Version: 6.00 Build 0)  -->
<svg version="1.1" id="Layer_1" xmlns="http://www.w3.org/2000/svg" xmlns:xlink="http://www.w3.org/1999/xlink" x="0px" y="0px"
	 viewBox="0 0 200 200" style="enable-background:new 0 0 200 200;" xml:space="preserve">
<style type="text/css">
	.st0{fill:#3B818F;}
</style>
<path id="Path_1" class="st0" d="M169,66.2c5.6,0,10.1-4.5,10.1-10.1V34.3c0-5.6-4.5-10.1-10.1-10.1h-35c-5.6,0-10.1,4.5-10.1,10.1
	v11.6h-12.2c-1-4.1-4.7-6.9-8.9-6.9h-5.6c-4.2,0-7.9,2.8-8.9,6.9H75c-3.1-14.8-17.6-24.3-32.4-21.1c-14.8,3.1-24.3,17.6-21.1,32.4
	C23.9,69,33.8,77.8,45.9,78.8v9.5c-4,1.1-6.8,4.7-6.8,8.9v5.6c0,4.2,2.8,7.8,6.8,8.9v18.5h-12c-7.2,0-13,5.8-13,13v10.7
	c0,0.7,0,10.8,6.1,17.1c3.3,3.3,7.8,5,12.4,4.9c1.3,0,2.3-1,2.3-2.3V167h21c7.1,0,12.9-5.7,13-12.8h12.6c1.1,4,4.7,6.8,8.9,6.8h5.6
	c4.2,0,7.8-2.8,8.9-6.8H125c3.1,14.8,17.6,24.3,32.4,21.1s24.3-17.6,21.1-32.4c-2.5-11.8-12.4-20.6-24.4-21.6v-9.5
	c4-1.1,6.8-4.7,6.8-8.9v-5.6c0-4.2-2.8-7.8-6.8-8.9V66.2H169z M134,61.5c-0.7,0-1.4-0.1-2.1-0.4L146,46.6l4,3.4c0.9,0.7,2.2,0.7,3,0
	l4-3.4l14.1,14.6c-0.7,0.3-1.3,0.4-2.1,0.4H134z M142.4,43.5l-13.6,14.1c-0.2-0.5-0.2-1-0.2-1.6V34.3c0-0.7,0.1-1.4,0.4-2.1
	L142.4,43.5z M174,32c0.3,0.7,0.5,1.5,0.5,2.3v21.8c0,0.5-0.1,1.1-0.2,1.6l-13.7-14.1L174,32z M169,28.8c0.4,0,0.9,0.1,1.3,0.2
	l-18.8,16.1l-19-16c0.5-0.1,1-0.2,1.5-0.2L169,28.8z M97.2,43.7h5.6c2.5,0,4.5,2,4.5,4.5s-2,4.5-4.5,4.5h-5.6c-2.5,0-4.5-2-4.5-4.5
	S94.7,43.7,97.2,43.7z M25.5,51.5c0-12.5,10.2-22.7,22.7-22.7S70.9,39,70.9,51.5S60.8,74.2,48.2,74.2l0,0
	C35.7,74.2,25.5,64.1,25.5,51.5L25.5,51.5z M43.7,102.8v-5.6c0-2.5,2-4.5,4.5-4.5s4.5,2,4.5,4.5l0,0v5.6c0,2.5-2,4.5-4.5,4.5
	S43.7,105.3,43.7,102.8z M71,153.9c0,4.6-3.7,8.3-8.3,8.3H39.4c-1.3,0-2.3,1-2.3,2.3v6.4c-2.5-0.3-4.9-1.5-6.7-3.3
	c-4.9-5-4.8-13.7-4.8-13.8c0,0,0,0,0,0v-10.7c0-4.6,3.7-8.3,8.3-8.3h28.8c4.6,0,8.3,3.7,8.3,8.3V153.9L71,153.9z M102.8,156.3h-5.6
	c-2.5,0-4.5-2-4.5-4.5c0-2.5,2-4.5,4.5-4.5c0,0,0,0,0,0h5.6c2.5,0,4.5,2,4.5,4.5S105.3,156.3,102.8,156.3L102.8,156.3z M174.5,148.5
	c0,12.5-10.2,22.7-22.7,22.7c-12.5,0-22.7-10.2-22.7-22.7c0-12.5,10.2-22.7,22.7-22.7c0,0,0,0,0,0
	C164.3,125.8,174.5,135.9,174.5,148.5z M156.3,97.2v5.6c0,2.5-2,4.5-4.5,4.5c-2.5,0-4.5-2-4.5-4.5c0,0,0,0,0,0v-5.6
	c0-2.5,2-4.5,4.5-4.5S156.3,94.7,156.3,97.2L156.3,97.2z M149.4,88.3c-4,1.1-6.8,4.7-6.8,8.9v5.6c0,4.2,2.8,7.8,6.8,8.9v9.5
	c-14.1,1.2-25,13.1-25,27.3c0,0.3,0,0.6,0,1h-12.7c-1.1-4-4.7-6.8-8.9-6.8h-5.6c-4.2,0-7.8,2.8-8.9,6.8H75.7v-6.2
	c0-7.2-5.8-13-13-13H50.6v-18.5c4-1.1,6.8-4.7,6.8-8.9v-5.6c0-4.2-2.8-7.8-6.8-8.9v-9.5c14.2-1.2,25-13.1,25-27.3c0-0.3,0-0.6,0-1
	h12.8c1.1,4,4.7,6.7,8.9,6.7h5.6c4.1,0,7.8-2.8,8.9-6.7h12.2v5.5c0,5.6,4.5,10.1,10.1,10.1h15.4L149.4,88.3z M63.8,143.3
	c0,1.3-1,2.3-2.3,2.3H35.1c-1.3,0-2.3-1-2.3-2.3s1-2.3,2.3-2.3c0,0,0,0,0,0h26.3C62.7,140.9,63.8,142,63.8,143.3
	C63.8,143.2,63.8,143.3,63.8,143.3z M63.8,153.9c0,1.3-1,2.3-2.3,2.3H35.1c-1.3,0-2.3-1-2.3-2.3s1-2.3,2.3-2.3c0,0,0,0,0,0h26.3
	C62.7,151.6,63.8,152.6,63.8,153.9C63.8,153.9,63.8,153.9,63.8,153.9L63.8,153.9z M59.8,51.5c-0.1-2.6-1.5-4.9-3.6-6.3l-9.5-6.5
	c-1.3-0.9-2.8-1.5-4.4-1.5c-2.8,0-5.6,2.1-5.6,6.8V59c0,4.7,2.8,6.8,5.6,6.8c1.6-0.1,3.1-0.6,4.4-1.5l9.5-6.5
	C58.3,56.4,59.7,54.1,59.8,51.5L59.8,51.5z M53.5,53.9L44,60.4c-0.5,0.4-1.1,0.7-1.8,0.7c-0.9,0-0.9-1.8-0.9-2.1V44.1
	c0-0.4,0-2.1,0.9-2.1c0.6,0.1,1.3,0.3,1.8,0.7l9.5,6.5c0.9,0.5,1.5,1.4,1.6,2.4C55,52.5,54.4,53.4,53.5,53.9L53.5,53.9z M145,136.9
	v7.1h-6.5c-1.3,0-2.3,1-2.3,2.3v13.8c0,1.3,1,2.3,2.3,2.3H165c1.3,0,2.3-1,2.3-2.3v-17.2c0-1.3-1-2.3-2.3-2.3h-6.5v-3.7
	c0-1.3-1-2.3-2.3-2.3h-8.8C146.1,134.5,145,135.6,145,136.9L145,136.9z M140.9,148.7h4.2v9.1h-4.2V148.7z M162.7,145.3v12.5h-4.2
	v-12.5L162.7,145.3z M149.7,139.2h4.2v18.6h-4.2V139.2L149.7,139.2z M100,62.4c-20.8,0-37.6,16.8-37.6,37.6s16.8,37.6,37.6,37.6
	s37.6-16.8,37.6-37.6v0C137.6,79.3,120.7,62.4,100,62.4z M127.1,81.3h-11c-0.7-2.5-1.5-4.9-2.6-7.2c-0.8-1.9-1.9-3.6-3-5.3
	C117.2,71.1,123,75.5,127.1,81.3z M129.8,114h-12.6c0.7-3.9,1.1-7.8,1.2-11.7h14.4C132.5,106.4,131.5,110.4,129.8,114L129.8,114z
	 M100,132.9c-3.3,0-6.6-3.3-9.2-9c-0.8-1.7-1.4-3.5-2-5.3h22.4c-0.5,1.8-1.2,3.5-2,5.2C106.6,129.7,103.3,132.9,100,132.9z
	 M87.6,114c-0.8-3.9-1.2-7.8-1.3-11.7h27.4c-0.1,3.9-0.6,7.8-1.3,11.7H87.6z M67.2,102.3h14.4c0.1,3.9,0.5,7.8,1.2,11.7H70.2
	C68.5,110.4,67.5,106.4,67.2,102.3z M70.2,86h12.6c-0.7,3.9-1.1,7.8-1.2,11.7H67.2C67.5,93.6,68.5,89.6,70.2,86z M100,67.1
	c3.3,0,6.6,3.3,9.2,9c0.8,1.7,1.4,3.5,2,5.3H88.8c0.5-1.8,1.2-3.5,2-5.2C93.3,70.4,96.7,67.1,100,67.1z M112.4,86
	c0.8,3.9,1.2,7.8,1.3,11.7H86.3c0.1-3.9,0.6-7.8,1.3-11.7H112.4z M118.4,97.7c-0.1-3.9-0.5-7.8-1.2-11.7h12.6
	c1.7,3.7,2.8,7.6,3.1,11.7H118.4z M89.5,68.8c-1.2,1.7-2.2,3.4-3,5.3c-1,2.3-1.9,4.7-2.6,7.2h-11C77,75.5,82.8,71.1,89.5,68.8z
	 M72.9,118.7h11c0.7,2.5,1.5,4.9,2.6,7.2c0.8,1.9,1.9,3.6,3,5.3C82.8,128.9,77,124.5,72.9,118.7L72.9,118.7z M110.5,131.2
	c1.2-1.7,2.2-3.4,3-5.3c1-2.3,1.9-4.7,2.6-7.2h11C123,124.5,117.2,128.9,110.5,131.2L110.5,131.2z"/>
</svg>
