<?xml version="1.0" encoding="utf-8"?>
<!-- Generator: Adobe Illustrator 25.4.1, SVG Export Plug-In . SVG Version: 6.00 Build 0)  -->
<svg version="1.1" id="Layer_1" xmlns="http://www.w3.org/2000/svg" xmlns:xlink="http://www.w3.org/1999/xlink" x="0px" y="0px"
	 viewBox="0 0 200 200" style="enable-background:new 0 0 200 200;" xml:space="preserve">
<style type="text/css">
	.st0{fill:#3B818F;}
</style>
<g id="_x32_3_Insurance_Policy">
	<g id="Group_1">
		<path id="Path_2" class="st0" d="M168.4,80.4c1.2,0,2.2-1,2.2-2.2V38.5c0-7.4-6-13.5-13.5-13.5c0,0,0,0,0,0H42.9
			c-7.4,0-13.5,6-13.5,13.5v40.7c0,1.2,1,2.2,2.2,2.2l0,0H52v84.2c0,5.2,4.2,9.4,9.4,9.4h99.8c5.2,0,9.4-4.2,9.4-9.4V89.4
			c0-1.2-0.9-2.2-2.1-2.2c-1.2,0-2.2,0.9-2.2,2.1c0,0,0,0.1,0,0.1v76.2c0,2.8-2.3,5-5.1,5H61.4c-2.8,0-5-2.3-5-5V38.5
			c0,0,0-0.1,0-0.1c0-3.3-1.3-6.6-3.6-9h104.3c5,0,9.1,4.1,9.1,9.1c0,0,0,0,0,0v39.7C166.2,79.4,167.2,80.4,168.4,80.4z M52,77.1
			H33.8V38.5c0-4.7,3.6-8.6,8.3-9.1C55.6,29.7,51.8,39.1,52,77.1L52,77.1z"/>
		<path id="Path_3" class="st0" d="M78.7,87.1l5.4,3.1c0.7,0.4,1.5,0.4,2.2,0l5.4-3.1c8.5-4.9,13.7-14,13.7-23.7V60
			c0-2.7-1.9-5-4.5-5.5c-4.1-0.9-8-2.9-11.1-5.9c-2.6-2.4-6.6-2.4-9.2,0c-3.1,2.9-7,4.9-11.2,5.8C66.9,55.1,65,57.4,65,60v3.3
			C65.1,73.1,70.3,82.2,78.7,87.1z M69.4,60c0-0.6,0.4-1.1,1-1.3c4.9-1.1,9.5-3.4,13.2-6.9c0.4-0.4,1-0.6,1.6-0.6
			c0.6,0,1.1,0.2,1.6,0.6c3.7,3.5,8.2,5.9,13.1,6.9c0.6,0.1,1.1,0.6,1.1,1.3v3.3c0,8.2-4.4,15.8-11.5,20l-4.3,2.5l-4.3-2.5
			c-7.1-4.1-11.5-11.7-11.5-20L69.4,60L69.4,60z"/>
		<path id="Path_4" class="st0" d="M81.5,74.7c0.9,0.9,2.2,0.9,3.1,0c0,0,0,0,0,0l9-9c0.9-0.9,0.9-2.2,0-3.1s-2.2-0.9-3.1,0L83,70
			l-3.1-3.1c-0.9-0.9-2.2-0.9-3.1,0s-0.9,2.2,0,3.1L81.5,74.7z"/>
		<path id="Path_5" class="st0" d="M116.6,57.9h37.1c1.2,0,2.2-1,2.1-2.2c0-1.2-1-2.1-2.1-2.1h-37.1c-1.2,0-2.2,0.9-2.2,2.1
			C114.4,56.9,115.3,57.9,116.6,57.9C116.6,57.9,116.6,57.9,116.6,57.9z"/>
		<path id="Path_6" class="st0" d="M116.6,69.3h21c1.2,0,2.2-0.9,2.2-2.1c0-1.2-0.9-2.2-2.1-2.2c0,0-0.1,0-0.1,0h-21
			c-1.2,0-2.2,0.9-2.2,2.1C114.4,68.3,115.3,69.3,116.6,69.3C116.6,69.3,116.6,69.3,116.6,69.3z"/>
		<path id="Path_7" class="st0" d="M155.4,103.2H67.2c-1.2,0-2.2,1-2.1,2.2c0,1.2,1,2.1,2.1,2.1h88.2c1.2,0,2.2-0.9,2.2-2.1
			C157.6,104.2,156.7,103.2,155.4,103.2C155.5,103.2,155.4,103.2,155.4,103.2L155.4,103.2z"/>
		<path id="Path_8" class="st0" d="M155.4,133.6H67.2c-1.2,0-2.2,0.9-2.2,2.1c0,1.2,0.9,2.2,2.1,2.2c0,0,0.1,0,0.1,0h88.2
			c1.2,0,2.2-0.9,2.2-2.1C157.6,134.6,156.7,133.6,155.4,133.6C155.5,133.6,155.4,133.6,155.4,133.6L155.4,133.6z"/>
		<path id="Path_9" class="st0" d="M67.2,122.7h35.9c1.2,0,2.2-0.9,2.2-2.1c0-1.2-0.9-2.2-2.1-2.2c0,0-0.1,0-0.1,0H67.2
			c-1.2,0-2.2,0.9-2.2,2.1C65,121.7,65.9,122.7,67.2,122.7C67.2,122.7,67.2,122.7,67.2,122.7z"/>
		<path id="Path_10" class="st0" d="M155.4,118.4h-40.9c-1.2,0-2.2,0.9-2.2,2.1c0,1.2,0.9,2.2,2.1,2.2c0,0,0.1,0,0.1,0h40.9
			c1.2,0,2.2-0.9,2.2-2.1C157.6,119.4,156.7,118.4,155.4,118.4C155.5,118.4,155.4,118.4,155.4,118.4L155.4,118.4z"/>
		<path id="Path_11" class="st0" d="M67.2,148.8c-1.2,0-2.2,0.9-2.2,2.1c0,1.2,0.9,2.2,2.1,2.2c0,0,0.1,0,0.1,0h35.9
			c1.2,0,2.2-0.9,2.2-2.1c0-1.2-0.9-2.2-2.1-2.2c0,0-0.1,0-0.1,0H67.2z"/>
		<path id="Path_12" class="st0" d="M155.4,148.8h-40.9c-1.2,0-2.2,0.9-2.2,2.1c0,1.2,0.9,2.2,2.1,2.2c0,0,0.1,0,0.1,0h40.9
			c1.2,0,2.2-0.9,2.2-2.1C157.6,149.8,156.7,148.8,155.4,148.8C155.5,148.8,155.4,148.8,155.4,148.8L155.4,148.8z"/>
	</g>
</g>
</svg>
