<?xml version="1.0" encoding="utf-8"?>
<!-- Generator: Adobe Illustrator 25.4.1, SVG Export Plug-In . SVG Version: 6.00 Build 0)  -->
<svg version="1.1" id="Layer_1" xmlns="http://www.w3.org/2000/svg" xmlns:xlink="http://www.w3.org/1999/xlink" x="0px" y="0px"
	 viewBox="0 0 200 200" style="enable-background:new 0 0 200 200;" xml:space="preserve">
<style type="text/css">
	.st0{fill:#3B818F;}
</style>
<g id="Group_2">
	<path id="Path_13" class="st0" d="M110.5,98.4c-1.3,0-2.6,0.2-3.9,0.5c-3.9-3.1-9.4-3.1-13.3,0c-1.3-0.3-2.6-0.5-3.9-0.5
		c-3.5,0-6.8,1.9-9.1,5.4c-2.3,3.5-3.5,7.7-3.5,12c0,1.1,0.9,2.1,2.1,2.1c1.1,0,2.1-0.9,2.1-2.1c0-7.1,3.9-13.2,8.5-13.2
		c0.2,0,0.4,0,0.5,0c-2.5,3.9-3.8,8.4-3.7,12.9c0,1.1,0.9,2.1,2.1,2.1c1.1,0,2.1-0.9,2.1-2.1c0-8,4.4-14.8,9.6-14.8
		s9.6,6.8,9.6,14.8c0,1.1,0.9,2.1,2.1,2.1c1.1,0,2.1-0.9,2.1-2.1c0.1-4.6-1.2-9.1-3.7-12.9c0.2,0,0.3,0,0.5,0c4.6,0,8.5,6,8.5,13.2
		c0,1.1,0.9,2.1,2.1,2.1c1.1,0,2.1-0.9,2.1-2.1c0.1-4.2-1.1-8.4-3.5-12C117.3,100.3,114,98.4,110.5,98.4z"/>
	<path id="Path_14" class="st0" d="M89.5,95.4c2.7,0,5.3-1.2,7.1-3.2c2.3,0.8,4.7,0.8,7,0c3.4,3.9,9.4,4.3,13.3,0.8
		c3.9-3.4,4.3-9.4,0.8-13.3c-2.3-2.6-5.9-3.7-9.2-2.9c-3.2-4.6-9.5-5.8-14.1-2.6c-1,0.7-1.9,1.6-2.6,2.6c-5-1.2-10.1,1.9-11.4,6.9
		c-1.2,5,1.9,10.1,6.9,11.4C87.9,95.3,88.7,95.4,89.5,95.4L89.5,95.4z M110.2,82.6c0-0.6-0.1-1.3-0.2-1.9c0.2,0,0.4,0,0.6,0
		c2.9,0,5.3,2.4,5.3,5.3c0,2.9-2.4,5.3-5.3,5.3c-1.3,0-2.5-0.5-3.5-1.3C109,88,110.2,85.4,110.2,82.6L110.2,82.6z M100,76.6
		c3.3,0,6.1,2.7,6.1,6c0,3.3-2.7,6.1-6,6.1c-1.1,0-2.2-0.3-3.1-0.9l0,0l0,0c-2.9-1.7-3.8-5.5-2-8.3C95.9,77.7,97.9,76.6,100,76.6
		L100,76.6z M89.5,80.7c0.2,0,0.4,0,0.6,0c-0.6,3.4,0.5,6.8,2.9,9.2c-2.2,1.9-5.5,1.7-7.5-0.5c-1.9-2.2-1.7-5.5,0.5-7.5
		C86.9,81.2,88.2,80.7,89.5,80.7z"/>
	<path id="Path_15" class="st0" d="M152.4,116.9c3.6-11,3.6-22.9,0-33.9c14.2-5.4,21.4-21.2,16.1-35.5S147.2,26.2,133,31.5
		c-7.4,2.8-13.3,8.6-16.1,16.1c-11-3.5-22.8-3.5-33.9,0c-1.1-2.9-2.6-5.5-4.6-7.9c-0.7-0.9-2-1-2.9-0.3c-0.9,0.7-1,2-0.3,2.9
		c8.2,9.9,6.8,24.7-3.1,32.9s-24.7,6.8-32.9-3.1s-6.8-24.7,3.1-32.9c6.9-5.7,16.5-7,24.7-3.2c1,0.5,2.3,0,2.7-1s0-2.3-1-2.7
		C55.1,25.9,38.7,32,32.3,45.8S32,75.9,45.8,82.3c0.6,0.3,1.2,0.5,1.8,0.8c-3.5,11-3.5,22.9,0,33.9c-14.2,5.4-21.4,21.2-16.1,35.5
		c5.4,14.2,21.2,21.4,35.5,16.1c1.3-0.5,2.5-1,3.6-1.7c1-0.6,1.4-1.8,0.8-2.8s-1.8-1.4-2.8-0.8c-11.3,6.2-25.5,2.1-31.7-9.1
		s-2.1-25.5,9.1-31.7s25.5-2.1,31.7,9.1c3,5.4,3.7,11.8,2,17.7c0,0,0,0.1,0,0.1c-0.9,3-2.3,5.7-4.2,8.1c-0.7,0.9-0.6,2.2,0.3,2.9
		c0.9,0.7,2.2,0.6,2.9-0.3c0,0,0,0,0,0c1.8-2.3,3.3-4.8,4.3-7.6c11,3.5,22.8,3.5,33.8,0c5.3,14.2,21.2,21.5,35.4,16.1
		c14.2-5.3,21.5-21.2,16.1-35.4C165.7,125.6,159.8,119.7,152.4,116.9L152.4,116.9z M115.8,148.4c-10.2,3.3-21.3,3.3-31.5,0
		c3.1-14.9-6.4-29.5-21.2-32.6c-3.8-0.8-7.7-0.8-11.4,0c-3.3-10.3-3.3-21.3,0-31.6c14.8,3.2,29.5-6.3,32.7-21.1
		c0.8-3.8,0.8-7.7,0-11.6c10.3-3.3,21.3-3.3,31.5,0c-1.9,8.9,0.7,18.3,7.1,24.8c0.8,0.8,2.1,0.8,2.9,0.1c0.8-0.8,0.8-2.1,0.1-2.9
		l0,0c-8.9-9.3-8.6-24.1,0.7-33s24.1-8.6,33,0.7c8.9,9.3,8.6,24.1-0.7,33c-6.9,6.6-17.1,8.4-25.8,4.4c-1-0.5-2.3,0-2.7,1
		c-0.5,1,0,2.3,1,2.7c5.4,2.4,11.4,3.1,17.2,1.9c3.3,10.3,3.3,21.3,0,31.6c-14.9-3.2-29.5,6.3-32.7,21.2
		C115,140.8,115,144.6,115.8,148.4L115.8,148.4z M142.7,166.1c-12.9,0-23.4-10.5-23.4-23.4c0-12.9,10.5-23.4,23.4-23.4
		c12.9,0,23.4,10.5,23.4,23.4c0,0,0,0,0,0C166.1,155.6,155.6,166.1,142.7,166.1L142.7,166.1z"/>
	<path id="Path_16" class="st0" d="M66.7,46.4c-3.3-2.6-8.1-2-10.7,1.3c-0.9,1.1-1.4,2.5-1.6,3.9c-3-0.5-5.8-2.1-7.5-4.7
		C46.2,46,45,45.8,44,46.4c-0.3,0.2-0.5,0.5-0.7,0.8c-0.9,2.3-1.4,4.7-1.3,7.2c0.1,3.8,2,7.4,5.1,9.7c-1.4,0.5-2.9,0.7-4.3,0.6
		c-1.1,0-2.1,0.8-2.1,2c0,0.8,0.4,1.5,1.1,1.9c3.1,1.7,6.5,2.7,10.1,2.7c3.2,0,6.4-0.8,9.2-2.5c5.5-3.3,8.7-9.2,8.7-16.4
		c0-0.1,0-0.2,0-0.3c1.2-1.4,2-3,2.4-4.8c0.3-1.1-0.4-2.2-1.5-2.5c-0.6-0.1-1.2,0-1.7,0.3C68.3,45.7,67.5,46.1,66.7,46.4L66.7,46.4z
		 M65.5,51.8c0,0.2,0.1,0.4,0.1,0.6c0,5.7-2.4,10.3-6.7,12.8c-2.5,1.5-5.4,2.1-8.3,1.9c0.7-0.3,1.3-0.7,1.9-1.1
		c0.9-0.6,1.2-1.9,0.5-2.9c-0.2-0.3-0.5-0.6-0.9-0.7c-3.8-1.7-5.9-4.4-6.1-8.1c0-0.7,0-1.4,0.1-2.1c2.9,2.4,6.5,3.7,10.2,3.6
		c1.1,0,2-0.9,2-2.1v-1.3c0-2,1.5-3.6,3.5-3.6c1,0,2,0.4,2.7,1.2c0.3,0.3,0.6,0.5,0.9,0.6C65.5,51.1,65.5,51.5,65.5,51.8L65.5,51.8z
		"/>
	<path id="Path_17" class="st0" d="M135.9,58.9h2.9v12.3c0,1.1,0.9,2.1,2.1,2.1s2.1-0.9,2.1-2.1V58.9h3.2c1.1,0,2.1-0.9,2.1-2.1
		s-0.9-2.1-2.1-2.1l0,0h-3.2V49c0-2,1.6-3.6,3.6-3.6h2.7c1.1,0,2.1-0.9,2.1-2.1s-0.9-2.1-2.1-2.1l0,0h-2.7c-4.3,0-7.7,3.4-7.7,7.7
		v5.8h-2.9c-1.1,0-2.1,0.9-2.1,2.1S134.8,58.9,135.9,58.9L135.9,58.9z"/>
	<path id="Path_18" class="st0" d="M152.6,140l-14-8.1c-1.4-0.8-3.1-0.3-3.9,1c-0.2,0.4-0.4,0.9-0.4,1.4v16.2c0,1.6,1.3,2.8,2.8,2.8
		c0.5,0,1-0.1,1.4-0.4l14-8.1c1.4-0.8,1.8-2.5,1-3.9C153.4,140.6,153,140.2,152.6,140L152.6,140z M138.5,148.3v-11.7l10.2,5.9
		L138.5,148.3z"/>
	<path id="Path_19" class="st0" d="M47.5,128.1c-3.1,0-5.6,2.5-5.6,5.6v17.9c0,3.1,2.5,5.6,5.6,5.6h17.9c3.1,0,5.6-2.5,5.6-5.6
		v-17.9c0-3.1-2.5-5.6-5.6-5.6H47.5z M66.9,133.8v17.9c0,0.8-0.7,1.5-1.5,1.5H47.5c-0.8,0-1.5-0.7-1.5-1.5v-17.9
		c0-0.8,0.7-1.5,1.5-1.5h17.9C66.2,132.3,66.9,132.9,66.9,133.8L66.9,133.8z"/>
	<path id="Path_20" class="st0" d="M56.4,136.5c-3.4,0-6.2,2.8-6.2,6.2c0,3.4,2.8,6.2,6.2,6.2c3.4,0,6.2-2.8,6.2-6.2
		C62.7,139.3,59.9,136.5,56.4,136.5z M56.4,144.8L56.4,144.8c-1.2,0-2.1-0.9-2.1-2.1c0-1.2,0.9-2.1,2.1-2.1c1.2,0,2.1,0.9,2.1,2.1
		C58.5,143.9,57.6,144.8,56.4,144.8L56.4,144.8z"/>
</g>
</svg>
