<?xml version="1.0" encoding="utf-8"?>
<!-- Generator: Adobe Illustrator 25.4.1, SVG Export Plug-In . SVG Version: 6.00 Build 0)  -->
<svg version="1.1" id="Layer_1" xmlns="http://www.w3.org/2000/svg" xmlns:xlink="http://www.w3.org/1999/xlink" x="0px" y="0px"
	 viewBox="0 0 200 200" style="enable-background:new 0 0 200 200;" xml:space="preserve">
<g id="Group_147" transform="translate(-440.043 -340.397)">
	<path id="Path_446" d="M554.9,411c-0.6-1.8-2.2-3.1-4-3.4l-4.3-0.7l-2-4.2c-1.2-2.5-4.2-3.6-6.7-2.4c-1.1,0.5-1.9,1.4-2.4,2.4
		l-2,4.2l-4.3,0.7c-2.8,0.4-4.6,3-4.2,5.7c0.2,1,0.6,2,1.4,2.8l3.3,3.3l-0.8,4.8c-0.4,2.7,1.4,5.3,4.2,5.8c1.1,0.2,2.3,0,3.3-0.6
		l3.8-2.1l3.8,2.1c2.4,1.3,5.5,0.4,6.8-2c0.5-1,0.7-2.1,0.6-3.2l-0.8-4.8l3.3-3.3C555,414.8,555.5,412.8,554.9,411L554.9,411z
		 M545.1,417.8l1.2,7.3l-6.2-3.4l-6.2,3.4l1.2-7.3l-5-5.2l7-1.1l3.1-6.6l3.1,6.6l7,1.1L545.1,417.8z"/>
	<path id="Path_447" d="M620.7,447.1c-0.4-3.9-3.6-6.8-7.5-6.8h-7.3c-0.7-3.9-1.7-7.8-3.1-11.5l6.3-3.6c1.8-1,3-2.6,3.6-4.6
		c0.5-1.9,0.2-4-0.8-5.7l-3.8-6.4c-2.1-3.6-6.7-4.8-10.3-2.7l-6.3,3.6c-2.6-3.1-5.5-5.9-8.6-8.4l3.6-6.2c2.1-3.5,0.9-8.1-2.7-10.2
		l-0.1-0.1l-6.6-3.7c-3.6-2-8.2-0.8-10.3,2.7l-3.6,6.2c-3.8-1.4-7.8-2.4-11.8-3.1v-7.1c0-4.2-3.4-7.5-7.6-7.5h-7.6
		c-4.2,0-7.5,3.3-7.6,7.5v7.1c-4,0.7-7.9,1.7-11.8,3.1l-3.6-6.2c-2.1-3.6-6.7-4.8-10.3-2.7l-6.5,3.7c-3.6,2-4.9,6.5-2.8,10.1
		c0,0,0,0.1,0.1,0.1l3.6,6.2c-3.1,2.5-6,5.4-8.6,8.4l-6.3-3.6c-3.6-2-8.2-0.8-10.3,2.7l-3.8,6.4c-1,1.7-1.3,3.8-0.8,5.7
		c0.5,1.9,1.8,3.6,3.6,4.6l6.3,3.6c-1.4,3.7-2.4,7.6-3.1,11.5h-7.3c-3.6,0-6.7,2.5-7.4,6.1c-0.1,0.7-0.1,5.1-0.1,5.2
		c0,1.4,1.1,2.5,2.5,2.5c1.4,0,2.5-1.1,2.5-2.5c0-0.5,0-3.6,0.1-4.3c0.3-1.1,1.3-1.9,2.5-1.9h9.4c1.3,0,2.3-0.9,2.5-2.2
		c0.7-5,2-9.9,3.9-14.5c0.5-1.2,0-2.5-1.1-3.2l-8.2-4.6c-0.6-0.3-1-0.9-1.2-1.5c-0.2-0.6-0.1-1.3,0.3-1.8l3.8-6.4
		c0.7-1.2,2.3-1.6,3.5-0.9l8.2,4.6c1.1,0.6,2.4,0.3,3.2-0.6c3.2-4,6.8-7.5,10.8-10.6c1-0.8,1.3-2.2,0.6-3.3l-4.7-8
		c-0.3-0.5-0.4-1.2-0.3-1.8c0.2-0.6,0.6-1.2,1.2-1.5l6.6-3.7c1.2-0.7,2.7-0.3,3.5,0.9l4.7,8c0.6,1.1,2,1.5,3.1,1.1
		c4.7-1.9,9.7-3.2,14.8-3.9c1.3-0.2,2.2-1.2,2.2-2.5v-9.3c0-1.4,1.2-2.5,2.5-2.4h7.6c1.4,0,2.5,1.1,2.5,2.4v9.3
		c0,1.3,0.9,2.3,2.2,2.5c5.1,0.7,10,2,14.8,3.9c1.2,0.5,2.5,0,3.1-1.1l4.7-8c0.7-1.2,2.3-1.6,3.5-0.9l6.6,3.7c0.6,0.3,1,0.9,1.2,1.5
		c0.2,0.6,0.1,1.3-0.3,1.8l-4.7,8.1c-0.6,1.1-0.4,2.5,0.6,3.3c4,3.1,7.7,6.7,10.8,10.6c0.8,1,2.1,1.2,3.2,0.6l8.2-4.6
		c1.2-0.7,2.7-0.3,3.5,0.9l3.8,6.4c0.3,0.5,0.4,1.2,0.3,1.8c-0.2,0.6-0.6,1.2-1.2,1.5l-8.2,4.6c-1.1,0.6-1.6,2-1.1,3.2
		c1.9,4.6,3.2,9.5,3.9,14.5c0.2,1.2,1.2,2.2,2.5,2.2h9.4c1.2,0,2.3,0.9,2.5,2.1c0,0.4,0,4,0,4.1c0,1.4,1.1,2.5,2.5,2.5
		c1.4,0,2.5-1.1,2.5-2.5C620.7,451.5,620.7,447.4,620.7,447.1L620.7,447.1z"/>
	<g id="Group_146" transform="translate(445.994 362.717)">
		<path id="Path_448" d="M107,140.5c0.2-0.5,0.3-1.1,0.4-1.7c0.5,0.1,1,0.1,1.5,0.1c2.8,0.1,5.4-1.3,6.9-3.6c0.5-0.8,0.8-1.7,1-2.6
			c0.8,0.2,1.6,0.3,2.4,0.3c2.5,0.1,4.9-1.1,6.3-3.2c0.5-0.9,0.9-2,1-3c1.2,0.5,2.4,0.7,3.7,0.7c2.5,0.1,4.8-1.1,6.2-3.1
			c1.1-1.7,1.4-3.9,0.9-5.9c-0.2-0.6-0.4-1.2-0.7-1.8c0.2-2.9,2-5.5,4.8-6.5c1.1,0.8,2.4,1.2,3.8,1.2c1,0,1.9-0.2,2.8-0.6l0.1-0.1
			l10-5.5c1.2-0.7,1.7-2.2,1-3.4l-6.6-12.7c-0.6-1.2-2.2-1.7-3.4-1.1c-1.2,0.6-1.7,2.2-1.1,3.4l5.5,10.5l-7.8,4.3
			c-0.6,0.3-1.4,0.1-1.8-0.5l-14.7-27.7c-0.1-0.2-0.1-0.5-0.1-0.7c0.1-0.3,0.3-0.5,0.6-0.7l12.1-5.8c1.3-0.6,1.8-2.1,1.2-3.4
			c-0.6-1.3-2.1-1.8-3.4-1.2l0,0l-12.1,5.8c-1.5,0.7-2.7,2-3.2,3.6c-0.4,1.3-0.4,2.7,0.1,4c-2.9,1.7-6.6,1.7-9.5-0.1L109,76
			c-1.8-0.8-3.9-1.2-5.9-1h-9.3c-1.9-0.1-3.8,0.5-5.3,1.6l0,0c-6.3-1.4-11.6,1.3-15.2,3.1l-1,0.5c-2.5,1.2-5.4,1.3-7.9,0.1L63.7,80
			c0-0.6-0.1-1.1-0.3-1.7c-0.5-1.6-1.7-2.9-3.2-3.6l-12.1-5.8c-1.3-0.6-2.8-0.1-3.4,1.2c-0.6,1.3-0.1,2.8,1.2,3.4l12.1,5.8
			c0.3,0.1,0.5,0.4,0.6,0.7c0.1,0.2,0.1,0.5-0.1,0.7l-14.7,27.7c-0.4,0.6-1.1,0.8-1.8,0.5l-7.8-4.3l5.5-10.5
			c0.6-1.2,0.2-2.8-1.1-3.4c-1.2-0.6-2.8-0.2-3.4,1.1l0,0l-6.6,12.7c-0.6,1.2-0.2,2.7,1,3.4l10,5.5l0.1,0.1c3.1,1.4,6.8,0.3,8.4-2.7
			l13.7-25.9l0.4,0.2c1.9,0.8,3.9,1.3,5.9,1.3c2.2,0,4.3-0.5,6.3-1.5l1-0.5c2-1.1,4.1-2,6.3-2.6l-10.6,8c-0.1,0-0.1,0.1-0.2,0.2
			c-1.3,1.2-2,3-1.9,4.8c0.4,1.9,1.8,3.5,3.6,4.1c0.1,0,0.2,0.1,0.3,0.1c3.9,1.1,8,0.9,11.8-0.7c0.1,0,0.1-0.1,0.2-0.1l4.9-2.7
			l40.7,22.3c1.5,0.7,2.2,2.4,1.6,3.9c0,0,0,0,0,0c0,0.1-0.1,0.1-0.1,0.2c-0.3,0.3-1.6,1.6-5.1-0.2l-17.5-9.3
			c-1.2-0.6-2.8-0.2-3.4,1.1c-0.6,1.2-0.2,2.7,1,3.4l13.3,7c1.1,0.7,1.5,2.2,0.8,3.4l-0.1,0.1c-1,0.9-2.4,1.1-3.5,0.5l-13.6-7.5
			c-1.2-0.7-2.8-0.2-3.4,1c-0.7,1.2-0.2,2.8,1,3.4l9.6,5.3c1,0.6,0.7,2.1,0.2,2.9c-1,1.1-2.5,1.5-3.9,0.9L98,128
			c-1.2-0.7-2.7-0.3-3.5,0.9c-0.7,1.2-0.3,2.7,0.9,3.5l6.2,3.7c0.4,0.2,0.6,0.6,0.7,1c0.2,0.8,0.1,1.6-0.3,2.3c-1,1.2-2.7,1.6-4.2,1
			l-40.4-24c-1.2-0.7-2.7-0.3-3.4,0.9c-0.7,1.2-0.3,2.7,0.9,3.4l33.5,19.9l9.3,5c2.3,0.9,4.9,0.4,6.7-1.2
			C106.8,141.6,107,140.5,107,140.5z M132.5,112.8L91.3,90.2c-0.8-0.4-1.7-0.4-2.4,0l-6,3.3c-2.5,1-5.3,1.2-7.9,0.5
			c-0.2-0.1-0.3-0.2-0.5-0.3c0-0.1,0.1-0.1,0.2-0.2l16.9-12.8c0.1-0.1,0.2-0.1,0.3-0.2c0.5-0.4,1.1-0.6,1.7-0.5c0.1,0,0.2,0,0.3,0
			h9.5c1.1-0.1,2.3,0,3.4,0.4l5.9,3.5c4.4,2.8,9.9,2.9,14.4,0.3l11.6,21.8C135.8,107.5,133.6,109.9,132.5,112.8L132.5,112.8z"/>
	</g>
</g>
</svg>
