<?xml version="1.0" encoding="utf-8"?>
<!-- Generator: Adobe Illustrator 25.4.1, SVG Export Plug-In . SVG Version: 6.00 Build 0)  -->
<svg version="1.1" id="Layer_1" xmlns="http://www.w3.org/2000/svg" xmlns:xlink="http://www.w3.org/1999/xlink" x="0px" y="0px"
	 viewBox="0 0 200 200" style="enable-background:new 0 0 200 200;" xml:space="preserve">
<style type="text/css">
	.st0{fill:#FFFFFF;}
	.st1{fill:#D4763D;}
</style>
<circle id="Ellipse_8" class="st0" cx="100" cy="100" r="72"/>
<path id="Path_52" class="st1" d="M132.9,67.6H67.1c-6.5,0-11.8,5.3-11.8,11.8v41.2c0,6.5,5.3,11.8,11.8,11.8c0,0,0,0,0,0h65.8
	c6.5,0,11.8-5.3,11.8-11.8V79.4C144.7,72.9,139.4,67.6,132.9,67.6 M110.6,102.8L92.3,112c-1.6,0.8-3.5,0.2-4.3-1.4
	c-0.2-0.4-0.3-0.9-0.3-1.4V90.8c0-1.8,1.4-3.2,3.2-3.2c0.5,0,1,0.1,1.4,0.3l18.3,9.1c1.6,0.8,2.2,2.7,1.4,4.3
	C111.7,102,111.2,102.5,110.6,102.8"/>
</svg>
